<?xml version="1.0" encoding="UTF-8" standalone="no"?>
<svg
   xmlns:dc="http://purl.org/dc/elements/1.1/"
   xmlns:cc="http://creativecommons.org/ns#"
   xmlns:rdf="http://www.w3.org/1999/02/22-rdf-syntax-ns#"
   xmlns:svg="http://www.w3.org/2000/svg"
   xmlns="http://www.w3.org/2000/svg"
   xmlns:xlink="http://www.w3.org/1999/xlink"
   xmlns:sodipodi="http://sodipodi.sourceforge.net/DTD/sodipodi-0.dtd"
   xmlns:inkscape="http://www.inkscape.org/namespaces/inkscape"
   width="646px"
   height="740px"
   viewBox="0 0 646 740"
   version="1.1"
   id="svg585"
   sodipodi:docname="sprite.svg"
   inkscape:version="0.92.2 5c3e80d, 2017-08-06">
  <metadata
     id="metadata589">
    <rdf:RDF>
      <cc:Work
         rdf:about="">
        <dc:format>image/svg+xml</dc:format>
        <dc:type
           rdf:resource="http://purl.org/dc/dcmitype/StillImage" />
      </cc:Work>
    </rdf:RDF>
  </metadata>
  <sodipodi:namedview
     pagecolor="#ffffff"
     bordercolor="#666666"
     borderopacity="1"
     objecttolerance="10"
     gridtolerance="10"
     guidetolerance="10"
     inkscape:pageopacity="0"
     inkscape:pageshadow="2"
     inkscape:window-width="1684"
     inkscape:window-height="1009"
     id="namedview587"
     showgrid="false"
     inkscape:zoom="1.0716216"
     inkscape:cx="140.5662"
     inkscape:cy="444.65322"
     inkscape:window-x="0"
     inkscape:window-y="0"
     inkscape:window-maximized="0"
     inkscape:current-layer="sprite" />
  <!-- Generator: Sketch 46.2 (44496) - http://www.bohemiancoding.com/sketch -->
  <title
     id="title335">sprite</title>
  <desc
     id="desc337">Created with Sketch.</desc>
  <defs
     id="defs363">
    <linearGradient
       x1="0%"
       y1="0%"
       x2="101.999998%"
       y2="100.999999%"
       id="linearGradient-1">
      <stop
         stop-color="#3023AE"
         offset="0%"
         id="stop339" />
      <stop
         stop-color="#C86DD7"
         offset="100%"
         id="stop341" />
    </linearGradient>
    <path
       d="M38.6871133,38.1764968 C39.1042956,38.5936791 39.1042956,39.269931 38.6871133,39.6871133 C38.269931,40.1042956 37.5936791,40.1042956 37.1764968,39.6871133 L30,32.5106165 L22.8235032,39.6871133 C22.4063209,40.1042956 21.730069,40.1042956 21.3128867,39.6871133 C20.8957044,39.269931 20.8957044,38.5936791 21.3128867,38.1764968 L28.4893835,31 L21.3128867,23.8235032 C20.8957044,23.4063209 20.8957044,22.730069 21.3128867,22.3128867 C21.730069,21.8957044 22.4063209,21.8957044 22.8235032,22.3128867 L30,29.4893835 L37.1764968,22.3128867 C37.5936791,21.8957044 38.269931,21.8957044 38.6871133,22.3128867 C39.1042956,22.730069 39.1042956,23.4063209 38.6871133,23.8235032 L31.5106165,31 L38.6871133,38.1764968 Z M30,60 C46.5685425,60 60,46.5685425 60,30 C60,13.4314575 46.5685425,0 30,0 C13.4314575,0 0,13.4314575 0,30 C0,46.5685425 13.4314575,60 30,60 Z"
       id="path-2" />
    <filter
       x="-13.3%"
       y="-6.7%"
       width="126.7%"
       height="126.7%"
       filterUnits="objectBoundingBox"
       id="filter-3">
      <feOffset
         dx="0"
         dy="4"
         in="SourceAlpha"
         result="shadowOffsetOuter1"
         id="feOffset345" />
      <feGaussianBlur
         stdDeviation="2"
         in="shadowOffsetOuter1"
         result="shadowBlurOuter1"
         id="feGaussianBlur347" />
      <feColorMatrix
         values="0 0 0 0 0.207843137   0 0 0 0 0.243137255   0 0 0 0 0.639215686  0 0 0 0.1 0"
         type="matrix"
         in="shadowBlurOuter1"
         id="feColorMatrix349" />
    </filter>
    <circle
       id="path-4"
       cx="5"
       cy="5"
       r="5" />
    <circle
       id="path-6"
       cx="5"
       cy="5"
       r="5" />
    <rect
       id="path-8"
       x="0"
       y="0"
       width="14"
       height="10"
       rx="1" />
    <linearGradient
       x1="50%"
       y1="0%"
       x2="50%"
       y2="100%"
       id="linearGradient-10">
      <stop
         stop-color="#FFFFFF"
         offset="0%"
         id="stop355" />
      <stop
         stop-color="#F0F0F0"
         offset="100%"
         id="stop357" />
    </linearGradient>
    <rect
       id="path-11"
       x="0"
       y="0"
       width="14"
       height="10"
       rx="1" />
    <rect
       id="path-13"
       x="0"
       y="0"
       width="14"
       height="10"
       rx="2" />
    <rect
       id="path-15"
       x="0"
       y="0"
       width="14"
       height="10"
       rx="2" />
  </defs>
  <g
     id="Page-1"
     stroke="none"
     stroke-width="1"
     fill="none"
     fill-rule="evenodd">
    <g
       id="sprite">
      <path
         d="M50.1945739,70.2920354 C56.0811181,70.2920354 59.6656618,67.4712389 59.6656618,62.5929204 C59.6656618,54.3628319 47.4650589,56.1548673 47.4650589,54.0641593 C47.4650589,53.5 47.8268019,53.0685841 49.1422307,53.0685841 C51.2140312,53.0685841 53.6804604,53.7986726 55.5878323,55.2588496 L59.1394903,50.5132743 C56.6401754,48.4557522 53.4173746,47.4269912 49.8328309,47.4269912 C43.8147438,47.4269912 40.7234859,51.0110619 40.7234859,54.7610619 C40.7234859,63.4889381 52.9569745,61.3318584 52.9569745,63.4557522 C52.9569745,64.3185841 51.7730885,64.6504425 50.5234311,64.6504425 C47.5637161,64.6504425 45.0972869,63.3893805 43.4530008,61.7964602 L40,66.7743363 C42.3348863,68.8982301 45.5248013,70.2920354 50.1945739,70.2920354 Z M72.0964648,70.2920354 C70.4521787,70.2920354 68.9394355,69.7278761 67.6240066,68.2013274 L67.6240066,76 L61.7045766,76 L61.7045766,53.8650442 L67.6240066,53.8650442 L67.6240066,55.5575221 C68.9065497,54.0309735 70.4521787,53.4668142 72.0964648,53.4668142 C76.0427514,53.4668142 79.0682379,56.3871681 79.0682379,61.8628319 C79.0682379,67.3716814 76.0427514,70.2920354 72.0964648,70.2920354 Z M70.05755,65.0154867 C71.6360647,65.0154867 73.017265,63.8871681 73.017265,61.8628319 C73.017265,59.8716814 71.6360647,58.7433628 70.05755,58.7433628 C69.3011784,58.7433628 68.1830639,59.1415929 67.6240066,59.8384956 L67.6240066,63.920354 C68.1501781,64.5840708 69.3011784,65.0154867 70.05755,65.0154867 Z M97.9117566,69.8938053 L97.9117566,53.8650442 L91.9923267,53.8650442 L91.9923267,63.7544248 C91.4990408,64.3185841 90.8084407,65.0154867 89.4930118,65.0154867 C88.04604,65.0154867 87.1910112,64.3849558 87.1910112,62.7588496 L87.1910112,53.8650442 L81.2715813,53.8650442 L81.2715813,65.3141593 C81.2715813,68.0685841 82.8500959,70.2920354 86.5332968,70.2920354 C89.3285832,70.2920354 91.0715264,69.130531 91.9923267,68.1017699 L91.9923267,69.8938053 L97.9117566,69.8938053 Z M107.87613,70.2920354 C109.882159,70.2920354 111.26336,69.7942478 111.888189,69.2300885 L110.835845,64.7168142 C110.704303,64.8495575 110.178131,65.0154867 109.651959,65.0154867 C108.862702,65.0154867 108.336531,64.3517699 108.336531,63.5221239 L108.336531,59.0420354 L111.559331,59.0420354 L111.559331,53.8650442 L108.336531,53.8650442 L108.336531,49.4845133 L102.417101,49.4845133 L102.417101,53.8650442 L99.7862428,53.8650442 L99.7862428,59.0420354 L102.417101,59.0420354 L102.417101,65.2477876 C102.417101,68.5995575 104.357358,70.2920354 107.87613,70.2920354 Z M130.435736,69.8938053 L130.435736,58.5110619 C130.435736,55.7234513 128.824335,53.4668142 125.141135,53.4668142 C122.345848,53.4668142 120.602905,54.6283186 119.682105,55.6902655 L119.682105,53.8650442 L113.762675,53.8650442 L113.762675,69.8938053 L119.682105,69.8938053 L119.682105,60.0044248 C120.175391,59.4402655 120.865991,58.7433628 122.214305,58.7433628 C123.628391,58.7433628 124.516306,59.3738938 124.516306,61.0331858 L124.516306,69.8938053 L130.435736,69.8938053 Z M136.684023,52.7035398 C138.525623,52.7035398 140.005481,51.210177 140.005481,49.3517699 C140.005481,47.4933628 138.525623,46 136.684023,46 C134.842423,46 133.362565,47.4933628 133.362565,49.3517699 C133.362565,51.210177 134.842423,52.7035398 136.684023,52.7035398 Z M139.643738,69.8938053 L139.643738,53.8650442 L133.724308,53.8650442 L133.724308,69.8938053 L139.643738,69.8938053 Z M160,69.8938053 L154.179227,61.1659292 L159.638257,53.8650442 L152.502055,53.8650442 L148.85174,59.5730088 L148.85174,47.7588496 L142.93231,47.7588496 L142.93231,69.8938053 L148.85174,69.8938053 L148.85174,66.2765487 L150.00274,64.7168142 L152.732255,69.8938053 L160,69.8938053 Z"
         id="AddFinder"
         fill="#FFFFFF" />
      <path
         d="M201.194574,70.2920354 C207.081118,70.2920354 210.665662,67.4712389 210.665662,62.5929204 C210.665662,54.3628319 198.465059,56.1548673 198.465059,54.0641593 C198.465059,53.5 198.826802,53.0685841 200.142231,53.0685841 C202.214031,53.0685841 204.68046,53.7986726 206.587832,55.2588496 L210.13949,50.5132743 C207.640175,48.4557522 204.417375,47.4269912 200.832831,47.4269912 C194.814744,47.4269912 191.723486,51.0110619 191.723486,54.7610619 C191.723486,63.4889381 203.956975,61.3318584 203.956975,63.4557522 C203.956975,64.3185841 202.773089,64.6504425 201.523431,64.6504425 C198.563716,64.6504425 196.097287,63.3893805 194.453001,61.7964602 L191,66.7743363 C193.334886,68.8982301 196.524801,70.2920354 201.194574,70.2920354 Z M223.096465,70.2920354 C221.452179,70.2920354 219.939435,69.7278761 218.624007,68.2013274 L218.624007,76 L212.704577,76 L212.704577,53.8650442 L218.624007,53.8650442 L218.624007,55.5575221 C219.90655,54.0309735 221.452179,53.4668142 223.096465,53.4668142 C227.042751,53.4668142 230.068238,56.3871681 230.068238,61.8628319 C230.068238,67.3716814 227.042751,70.2920354 223.096465,70.2920354 Z M221.05755,65.0154867 C222.636065,65.0154867 224.017265,63.8871681 224.017265,61.8628319 C224.017265,59.8716814 222.636065,58.7433628 221.05755,58.7433628 C220.301178,58.7433628 219.183064,59.1415929 218.624007,59.8384956 L218.624007,63.920354 C219.150178,64.5840708 220.301178,65.0154867 221.05755,65.0154867 Z M248.911757,69.8938053 L248.911757,53.8650442 L242.992327,53.8650442 L242.992327,63.7544248 C242.499041,64.3185841 241.808441,65.0154867 240.493012,65.0154867 C239.04604,65.0154867 238.191011,64.3849558 238.191011,62.7588496 L238.191011,53.8650442 L232.271581,53.8650442 L232.271581,65.3141593 C232.271581,68.0685841 233.850096,70.2920354 237.533297,70.2920354 C240.328583,70.2920354 242.071526,69.130531 242.992327,68.1017699 L242.992327,69.8938053 L248.911757,69.8938053 Z M258.87613,70.2920354 C260.882159,70.2920354 262.26336,69.7942478 262.888189,69.2300885 L261.835845,64.7168142 C261.704303,64.8495575 261.178131,65.0154867 260.651959,65.0154867 C259.862702,65.0154867 259.336531,64.3517699 259.336531,63.5221239 L259.336531,59.0420354 L262.559331,59.0420354 L262.559331,53.8650442 L259.336531,53.8650442 L259.336531,49.4845133 L253.417101,49.4845133 L253.417101,53.8650442 L250.786243,53.8650442 L250.786243,59.0420354 L253.417101,59.0420354 L253.417101,65.2477876 C253.417101,68.5995575 255.357358,70.2920354 258.87613,70.2920354 Z M281.435736,69.8938053 L281.435736,58.5110619 C281.435736,55.7234513 279.824335,53.4668142 276.141135,53.4668142 C273.345848,53.4668142 271.602905,54.6283186 270.682105,55.6902655 L270.682105,53.8650442 L264.762675,53.8650442 L264.762675,69.8938053 L270.682105,69.8938053 L270.682105,60.0044248 C271.175391,59.4402655 271.865991,58.7433628 273.214305,58.7433628 C274.628391,58.7433628 275.516306,59.3738938 275.516306,61.0331858 L275.516306,69.8938053 L281.435736,69.8938053 Z M287.684023,52.7035398 C289.525623,52.7035398 291.005481,51.210177 291.005481,49.3517699 C291.005481,47.4933628 289.525623,46 287.684023,46 C285.842423,46 284.362565,47.4933628 284.362565,49.3517699 C284.362565,51.210177 285.842423,52.7035398 287.684023,52.7035398 Z M290.643738,69.8938053 L290.643738,53.8650442 L284.724308,53.8650442 L284.724308,69.8938053 L290.643738,69.8938053 Z M311,69.8938053 L305.179227,61.1659292 L310.638257,53.8650442 L303.502055,53.8650442 L299.85174,59.5730088 L299.85174,47.7588496 L293.93231,47.7588496 L293.93231,69.8938053 L299.85174,69.8938053 L299.85174,66.2765487 L301.00274,64.7168142 L303.732255,69.8938053 L311,69.8938053 Z"
         id="path366"
         fill="#384144" />
      <rect
         id="Rectangle-16"
         stroke="#6AC9C1"
         stroke-width="2"
         x="343"
         y="43"
         width="59"
         height="31"
         rx="15.5" />
      <rect
         id="Rectangle"
         stroke="#22C199"
         stroke-width="2"
         x="434"
         y="48"
         width="43"
         height="22"
         rx="11" />
      <text
         id="DOC"
         font-family="ProximaNova-Black, Proxima Nova"
         font-size="12"
         font-weight="700"
         fill="#384144">
        <tspan
           x="442.306"
           y="63"
           id="tspan370">DOC</tspan>
      </text>
      <text
         id="text375"
         font-family="ProximaNova-Black, Proxima Nova"
         font-size="24"
         font-weight="700"
         fill="#FFFFFF">
        <tspan
           x="510"
           y="70"
           id="tspan373">Sputnik</tspan>
      </text>
      <path
         d="M358.88,65.24 C361.24,65.24 362.84,64.12 363.96,62.6 L362.54,61.82 C361.78,62.96 360.4,63.76 358.88,63.76 C355.96,63.76 353.74,61.5 353.74,58.34 C353.74,55.16 355.96,52.92 358.88,52.92 C360.4,52.92 361.78,53.74 362.54,54.86 L363.94,54.08 C362.88,52.58 361.24,51.44 358.88,51.44 C355.04,51.44 352.02,54.24 352.02,58.34 C352.02,62.44 355.04,65.24 358.88,65.24 Z M375.76,65 L373.8,65 L370.4,59.7 L367.74,59.7 L367.74,65 L366.08,65 L366.08,51.66 L371.44,51.66 C373.88,51.66 375.62,53.22 375.62,55.68 C375.62,58.08 373.98,59.4 372.16,59.56 L375.76,65 Z M371.24,58.24 C372.82,58.24 373.9,57.18 373.9,55.68 C373.9,54.18 372.82,53.14 371.24,53.14 L367.74,53.14 L367.74,58.24 L371.24,58.24 Z M391.3,65 L391.3,51.66 L388.92,51.66 L384.76,61.7 L380.62,51.66 L378.24,51.66 L378.24,65 L379.9,65 L379.9,54.02 L384.42,65 L385.1,65 L389.64,54.02 L389.64,65 L391.3,65 Z"
         id="CRM"
         fill="#FFFFFF" />
      <g
         id="Group-24"
         transform="translate(40.000000, 215.000000)"
         fill-rule="nonzero">
        <path
           d="M47.9999063,11 L0,11 L0,0.868454707 C0,0.388876468 0.370593026,0 0.827623384,0 L47.1723766,0 C47.629407,0 48,0.388876468 48,0.868454707 L47.9999063,11 L47.9999063,11 Z"
           id="Shape"
           fill="#F5F5F5" />
        <path
           d="M47.172375,33 L0.827625,33 C0.37059375,33 0,32.6111201 0,32.1315375 L0,22 L48,22 L48,32.1315375 C48,32.6112184 47.6294063,33 47.172375,33 Z"
           id="path379"
           fill="#FF4B55" />
        <rect
           id="Rectangle-path"
           fill="#41479B"
           x="0"
           y="11"
           width="48"
           height="11" />
      </g>
      <path
         d="M63,300.999932 L55.86,300.999932 C55.4108389,302.76502 53.8214562,304.000543 52,304.000543 C50.1785438,304.000543 48.5891611,302.76502 48.14,300.999932 L41,300.999932 C40.4477153,300.999932 40,300.552247 40,300 C40,299.447753 40.4477153,299.000068 41,299.000068 L48.14,299.000068 C48.5891611,297.23498 50.1785438,295.999457 52,295.999457 C53.8214562,295.999457 55.4108389,297.23498 55.86,299.000068 L63,299.000068 C63.5522847,299.000068 64,299.447753 64,300 C64,300.552247 63.5522847,300.999932 63,300.999932 L63,300.999932 Z M52,298.000136 C50.8954305,298.000136 50,298.895505 50,300 C50,301.104495 50.8954305,301.999864 52,301.999864 C53.1045695,301.999864 54,301.104495 54,300 C54,298.895505 53.1045695,298.000136 52,298.000136 L52,298.000136 Z M63,293.000475 L61.86,293.000475 C61.4108389,294.765563 59.8214562,296.001085 58,296.001085 C56.1785438,296.001085 54.5891611,294.765563 54.14,293.000475 L41,293.000475 C40.4477153,293.000475 40,292.55279 40,292.000543 C40,291.448295 40.4477153,291.000611 41,291.000611 L54.14,291.000611 C54.5891611,289.235523 56.1785438,288 58,288 C59.8214562,288 61.4108389,289.235523 61.86,291.000611 L63,291.000611 C63.5522847,291.000611 64,291.448295 64,292.000543 C64,292.55279 63.5522847,293.000475 63,293.000475 L63,293.000475 Z M58,290.000678 C56.8954305,290.000678 56,290.896048 56,292.000543 C56,293.105037 56.8954305,294.000407 58,294.000407 C59.1045695,294.000407 60,293.105037 60,292.000543 C60,290.896048 59.1045695,290.000678 58,290.000678 L58,290.000678 Z M41,306.999525 L42.14,306.999525 C42.5891611,305.234437 44.1785438,303.998915 46,303.998915 C47.8214562,303.998915 49.4108389,305.234437 49.86,306.999525 L63,306.999525 C63.5522847,306.999525 64,307.44721 64,307.999457 C64,308.551705 63.5522847,308.999389 63,308.999389 L49.86,308.999389 C49.4108389,310.764477 47.8214562,312 46,312 C44.1785438,312 42.5891611,310.764477 42.14,308.999389 L41,308.999389 C40.4477153,308.999389 40,308.551705 40,307.999457 C40,307.44721 40.4477153,306.999525 41,306.999525 L41,306.999525 Z M46,309.999322 C47.1045695,309.999322 48,309.103952 48,307.999457 C48,306.894963 47.1045695,305.999593 46,305.999593 C44.8954305,305.999593 44,306.894963 44,307.999457 C44,309.103952 44.8954305,309.999322 46,309.999322 L46,309.999322 Z"
         id="sliders"
         fill="url(#linearGradient-1)" />
      <path
         d="M63.4472789,363.089 L55.7014813,367.681 L55.7014813,367.681 C55.5481521,367.826775 55.3518191,367.919031 55.141785,367.944 C54.8189405,368.029456 54.475863,367.919845 54.2622622,367.663 L49.9945775,363.435 L45.7168984,367.681 C45.3206907,368.07215 44.6838814,368.07215 44.2876738,367.681 L44.2876738,367.681 C43.8975035,367.2905 43.8975035,366.6575 44.2876738,366.267 L49.274968,361.317 C49.6752305,360.926258 50.3139246,360.926258 50.7141871,361.317 L55.0418392,365.61 L62.5677561,361.143 C62.7983393,361.002149 63.0792857,360.970261 63.3355428,361.055855 C63.5917998,361.141449 63.7972595,361.335804 63.8970349,361.587 L63.8970349,361.587 C64.1367982,362.130197 63.946058,362.767191 63.4472789,363.089 L63.4472789,363.089 Z M62.9875283,374 C63.5395136,374 63.9869861,374.447715 63.9869861,375 C63.9869861,375.552285 63.5395136,376 62.9875283,376 L40.9994578,376 C40.4474725,376 40,375.552285 40,375 L40,353 C40,352.447715 40.4474725,352 40.9994578,352 C41.551443,352 41.9989155,352.447715 41.9989155,353 L41.9989155,374 L62.9875283,374 L62.9875283,374 Z"
         id="graph1"
         fill="#360E6A" />
      <polygon
         id="polygon385"
         fill="#F1F1F1"
         fill-rule="nonzero"
         points="54 418.627907 52.3360656 417 40 429.5 52.3360656 442 54 440.372093 43.2704918 429.5" />
      <polygon
         id="polygon387"
         fill="#384144"
         fill-rule="nonzero"
         points="108 418.627907 106.336066 417 94 429.5 106.336066 442 108 440.372093 97.2704918 429.5" />
      <polygon
         id="Shape-Copy-3"
         fill="#F1F1F1"
         fill-rule="nonzero"
         transform="translate(155.000000, 429.500000) scale(-1, 1) translate(-155.000000, -429.500000) "
         points="162 418.627907 160.336066 417 148 429.5 160.336066 442 162 440.372093 151.270492 429.5" />
      <polygon
         id="Shape-Copy-2"
         fill="#384144"
         fill-rule="nonzero"
         transform="translate(209.000000, 429.500000) scale(-1, 1) translate(-209.000000, -429.500000) "
         points="216 418.627907 214.336066 417 202 429.5 214.336066 442 216 440.372093 205.270492 429.5" />
      <path
         d="M116.009881,375.999984 C111.318499,376.007538 107.053644,373.276234 105.095076,369.009912 C103.136509,364.743591 103.844039,359.726019 106.905818,356.168723 C109.967597,352.611428 114.821145,351.167921 119.327229,352.474438 L118.248092,354.262404 C114.107612,353.310013 109.818096,355.081998 107.55441,358.679929 C105.290723,362.27786 105.547901,366.914923 108.195549,370.24004 C110.843196,373.565157 115.302312,374.851174 119.312042,373.446057 C123.321771,372.040939 126.005245,368.251965 126.001892,364.000216 C126.001987,362.856741 125.802479,361.72204 125.412364,360.647281 L126.681349,358.539321 C128.585531,362.258073 128.418131,366.700662 126.239506,370.265331 C124.06088,373.829999 120.18522,376.002666 116.009881,375.999984 L116.009881,375.999984 Z M116.929146,367.369151 C116.883871,367.502706 116.80868,367.624132 116.709322,367.724144 C116.520805,367.914626 116.25646,368.009791 115.989897,367.983139 C115.561859,368.013034 115.170858,367.740369 115.050648,367.328152 L111.2337,363.510225 C110.917967,363.154123 110.93397,362.613536 111.270215,362.276764 C111.606459,361.939993 112.146612,361.923551 112.502685,362.23925 L115.750089,365.490187 L123.134185,354.516399 C123.263462,354.279672 123.482827,354.105263 123.742475,354.032768 C124.002123,353.960273 124.280024,353.995845 124.513083,354.131406 C124.99538,354.429224 125.154568,355.056292 124.872795,355.548379 L116.929146,367.369151 Z"
         id="checkmark"
         fill="#360E6A" />
      <g
         id="Group"
         transform="translate(255.000000, 398.000000)">
        <g
           id="Oval-10">
          <use
             fill="black"
             fill-opacity="1"
             filter="url(#filter-3)"
             xlink:href="#path-2"
             id="use392" />
          <use
             fill="#FFFFFF"
             fill-rule="evenodd"
             xlink:href="#path-2"
             id="use394" />
        </g>
        <g
           id="noun_1135516_cc"
           transform="translate(21.000000, 22.000000)" />
      </g>
      <path
         d="M127,312 L105,312 C104.447715,312 104,311.552285 104,311 L104,289 C104,288.447715 104.447715,288 105,288 C105.552285,288 106,288.447715 106,289 L106,310 L127,310 C127.552285,310 128,310.447715 128,311 C128,311.552285 127.552285,312 127,312 L127,312 Z M122,308 C121.447715,308 121,307.552285 121,307 L121,296 C121,295.447715 121.447715,295 122,295 C122.552285,295 123,295.447715 123,296 L123,307 C123,307.552285 122.552285,308 122,308 L122,308 Z M118,308 L118,308 C117.447715,308 117,307.552285 117,307 L117,300 C117,299.447715 117.447715,299 118,299 L118,299 C118.552285,299 119,299.447715 119,300 L119,307 C119,307.552285 118.552285,308 118,308 L118,308 Z M114,308 C113.447715,308 113,307.552285 113,307 L113,291 C113,290.447715 113.447715,290 114,290 C114.552285,290 115,290.447715 115,291 L115,307 C115,307.552285 114.552285,308 114,308 L114,308 Z M110,308 C109.447715,308 109,307.552285 109,307 L109,297 C109,296.447715 109.447715,296 110,296 C110.552285,296 111,296.447715 111,297 L111,307 C111,307.552285 110.552285,308 110,308 L110,308 Z"
         id="stats1"
         fill="url(#linearGradient-1)" />
      <path
         d="M190,312 L170,312 C168.895431,312 168,311.104569 168,310 L168,292 C168,290.895431 168.895431,290 170,290 L186,290 C187.104569,290 188,290.895431 188,292 L188,294 L190,294 C191.104569,294 192,294.895431 192,296 L192,310 C192,311.104569 191.104569,312 190,312 L190,312 Z M186,292 L170,292 L170,294 L186,294 L186,292 L186,292 Z M190,296 L170,296 L170,310 L190,310 L190,296 L190,296 Z M185,300 C186.656854,300 188,301.343146 188,303 C188,304.656854 186.656854,306 185,306 C183.343146,306 182,304.656854 182,303 C182,301.343146 183.343146,300 185,300 L185,300 Z M185,304 C185.552285,304 186,303.552285 186,303 C186,302.447715 185.552285,302 185,302 C184.447715,302 184,302.447715 184,303 C184,303.552285 184.447715,304 185,304 L185,304 Z"
         id="wallet"
         fill="url(#linearGradient-1)" />
      <path
         d="M247.969388,312 C247.44898,307.653 245.602041,304 241,304 C236.397959,304 234.55102,307.653 234.030612,312 L232,312 C232.663265,306.575 235.27551,302 241,302 C246.72449,302 249.336735,306.575 250,312 L247.969388,312 L247.969388,312 Z M241,300 C237.618665,300 234.877551,297.313708 234.877551,294 C234.877551,290.686292 237.618665,288 241,288 C244.381335,288 247.122449,290.686292 247.122449,294 C247.122449,297.313708 244.381335,300 241,300 L241,300 Z M241,290 C238.745777,290 236.918367,291.790861 236.918367,294 C236.918367,296.209139 238.745777,298 241,298 C243.254223,298 245.081633,296.209139 245.081633,294 C245.081633,291.790861 243.254223,290 241,290 L241,290 Z"
         id="user"
         fill="#4B31B3" />
      <path
         d="M312,312 L292,312 C290.895431,312 290,311.104569 290,310 L290,292 C290,290.895431 290.895431,290 292,290 L308,290 C309.104569,290 310,290.895431 310,292 L310,294 L312,294 C313.104569,294 314,294.895431 314,296 L314,310 C314,311.104569 313.104569,312 312,312 L312,312 Z M308,292 L292,292 L292,294 L308,294 L308,292 L308,292 Z M312,296 L292,296 L292,310 L312,310 L312,296 L312,296 Z M307,300 C308.656854,300 310,301.343146 310,303 C310,304.656854 308.656854,306 307,306 C305.343146,306 304,304.656854 304,303 C304,301.343146 305.343146,300 307,300 L307,300 Z M307,304 C307.552285,304 308,303.552285 308,303 C308,302.447715 307.552285,302 307,302 C306.447715,302 306,302.447715 306,303 C306,303.552285 306.447715,304 307,304 L307,304 Z"
         id="path402"
         fill="#6F42BF" />
      <path
         d="M385.520685,300.073589 L381.733148,302.636326 C381.703167,302.669323 381.68318,302.712318 381.6532,302.736316 C381.633213,302.821307 381.623219,302.910298 381.603232,302.995289 L379.534578,302.995289 C379.606152,302.753676 379.662888,302.507909 379.704467,302.259365 L376.466573,300.068589 C375.999012,299.713939 375.851794,299.075505 376.1168,298.551745 C376.215199,298.306865 376.418263,298.119112 376.67,298.040255 C376.921736,297.961399 377.195556,297.99977 377.415956,298.144787 L379.984285,299.883608 C379.940452,295.843682 377.469145,292.227799 373.722342,290.721473 C369.975539,289.215147 365.6908,290.114898 362.865418,293.001314 L360.277102,293.001314 C363.29898,288.78358 368.691236,286.991932 373.634466,288.563156 C378.577696,290.134379 381.947923,294.711212 381.982986,299.900607 L384.571302,298.153786 C384.791702,298.008769 385.065521,297.970399 385.317258,298.049255 C385.568994,298.128111 385.772059,298.315864 385.870457,298.560744 C386.133209,299.083501 385.98619,299.719391 385.520685,300.073589 L385.520685,300.073589 Z M363.331286,299.956536 C363.079573,300.035191 362.805868,299.996678 362.5856,299.851612 L360.177167,298.225778 C360.069702,298.811405 360.012862,299.405207 360.007277,300.000596 C360.007868,304.062374 362.46416,307.720194 366.222375,309.255895 C369.980591,310.791596 374.293858,309.899987 377.136138,306.999878 L379.724454,306.999878 C376.689708,311.231788 371.271055,313.018776 366.316116,311.421741 C361.361178,309.824706 358.003888,305.20913 358.008577,300.000596 C358.014025,299.320022 358.08092,298.641332 358.208447,297.972804 L355.430254,299.851612 C355.209986,299.996678 354.936281,300.035191 354.684568,299.956536 C354.432855,299.877881 354.229703,299.690361 354.131098,299.445653 C353.865952,298.921591 354.013154,298.282804 354.480871,297.927809 L358.268408,295.366072 C358.424554,295.162258 358.661735,295.036666 358.917985,295.022107 C358.977472,295.011436 359.038382,295.011436 359.097868,295.022107 C359.354119,295.036666 359.5913,295.162258 359.747446,295.366072 L363.534983,297.927809 C364.002699,298.282804 364.149902,298.921591 363.884755,299.445653 C363.786151,299.690361 363.582999,299.877881 363.331286,299.956536 Z"
         id="refresh"
         fill="url(#linearGradient-1)" />
      <path
         d="M512,312 L492,312 C490.895431,312 490,311.104569 490,310 L490,292 C490,290.895431 490.895431,290 492,290 L494,290 L494,292 L492,292 L492,310 L512,310 L512,292 L510,292 L510,290 L512,290 C513.104569,290 514,290.895431 514,292 L514,310 C514,311.104569 513.104569,312 512,312 L512,312 Z M507,305 L509,305 C509.552285,305 510,305.447715 510,306 C510,306.552285 509.552285,307 509,307 L507,307 C506.447715,307 506,306.552285 506,306 C506,305.447715 506.447715,305 507,305 L507,305 Z M507,301 L509,301 C509.552285,301 510,301.447715 510,302 C510,302.552285 509.552285,303 509,303 L507,303 C506.447715,303 506,302.552285 506,302 C506,301.447715 506.447715,301 507,301 L507,301 Z M509,299 L507,299 C506.447715,299 506,298.552285 506,298 C506,297.447715 506.447715,297 507,297 L509,297 C509.552285,297 510,297.447715 510,298 C510,298.552285 509.552285,299 509,299 L509,299 Z M508,294 C507.447715,294 507,293.552285 507,293 L507,289 C507,288.447715 507.447715,288 508,288 C508.552285,288 509,288.447715 509,289 L509,293 C509,293.552285 508.552285,294 508,294 L508,294 Z M504,290 L506,290 L506,292 L504,292 L504,290 L504,290 Z M501,305 L503,305 C503.552285,305 504,305.447715 504,306 C504,306.552285 503.552285,307 503,307 L501,307 C500.447715,307 500,306.552285 500,306 C500,305.447715 500.447715,305 501,305 L501,305 Z M501,301 L503,301 C503.552285,301 504,301.447715 504,302 C504,302.552285 503.552285,303 503,303 L501,303 C500.447715,303 500,302.552285 500,302 C500,301.447715 500.447715,301 501,301 L501,301 Z M503,299 L501,299 C500.447715,299 500,298.552285 500,298 C500,297.447715 500.447715,297 501,297 L503,297 C503.552285,297 504,297.447715 504,298 C504,298.552285 503.552285,299 503,299 L503,299 Z M502,294 C501.447715,294 501,293.552285 501,293 L501,289 C501,288.447715 501.447715,288 502,288 C502.552285,288 503,288.447715 503,289 L503,293 C503,293.552285 502.552285,294 502,294 L502,294 Z M498,290 L500,290 L500,292 L498,292 L498,290 L498,290 Z M495,305 L497,305 C497.552285,305 498,305.447715 498,306 C498,306.552285 497.552285,307 497,307 L495,307 C494.447715,307 494,306.552285 494,306 C494,305.447715 494.447715,305 495,305 L495,305 Z M495,301 L497,301 C497.552285,301 498,301.447715 498,302 C498,302.552285 497.552285,303 497,303 L495,303 C494.447715,303 494,302.552285 494,302 C494,301.447715 494.447715,301 495,301 L495,301 Z M497,299 L495,299 C494.447715,299 494,298.552285 494,298 C494,297.447715 494.447715,297 495,297 L497,297 C497.552285,297 498,297.447715 498,298 C498,298.552285 497.552285,299 497,299 L497,299 Z M496,294 C495.447715,294 495,293.552285 495,293 L495,289 C495,288.447715 495.447715,288 496,288 C496.552285,288 497,288.447715 497,289 L497,293 C497,293.552285 496.552285,294 496,294 L496,294 Z"
         id="calendar"
         fill="url(#linearGradient-1)" />
      <g
         id="noun_1139165_cc"
         transform="translate(40.000000, 491.000000)"
         fill-rule="nonzero"
         fill="#1A457A">
        <g
           id="g412"
           transform="translate(0.000000, 0.159455)">
          <g
             transform="translate(0.000005, 0.000000)"
             id="g410">
            <path
               d="M7.6306,12.1921825 C7.1111075,11.69673 6.7683,11.0970675 6.7025325,10.5238425 C6.64948,9.96811 6.8179,9.387595 7.6029875,8.68426 C7.862875,8.4514375 8.2025975,8.16452 8.370845,7.6622875 C8.5391075,7.16004 8.4262975,6.580395 8.1167375,6.0049975 C7.2536575,4.93541 6.46461,3.7249625 5.6860575,2.8230175 C5.1518625,2.28882 4.37997,2.125255 3.807795,2.303745 C3.2675425,2.470705 2.8509625,2.8394375 2.5040775,3.17657 C0.54843,5.132215 -0.27185,7.1441475 0.07892,9.170405 C0.4296925,11.196665 1.823495,13.10259 3.91829,15.197385 C4.74681,16.025905 5.657775,16.93687 6.3931625,17.67226 C8.4879575,19.767055 10.393885,21.16086 12.420145,21.51163 C14.446405,21.8623975 16.458335,21.0421175 18.413975,19.0864725 C18.7511,18.739585 19.11985,18.3230075 19.2868,17.7827525 C19.4653,17.2105825 19.3018,16.4386875 18.767525,15.9044925 C17.8656,15.1259375 16.6551425,14.3368925 15.5855525,13.4738125 C15.01016,13.16424 14.4305125,13.0514425 13.928265,13.219705 C13.4260325,13.3879525 13.1391225,13.7276825 12.90629,13.98756 C12.202955,14.77265 11.62244,14.94107 11.0667075,14.8880175 C10.4934825,14.82225 9.8937475,14.4795125 9.3983675,13.9599475 L7.6306,12.1921825 Z M4.608825,3.867105 L6.80197,6.7341925 C6.97121,7.0615775 6.955895,7.15643 6.9456,7.187185 C6.93475,7.2195425 6.844195,7.34684 6.603085,7.5628425 C5.5568975,8.5000875 5.1121,9.631645 5.21098,10.667475 C5.309325,11.69789 5.873805,12.574915 6.56994,13.2528425 C7.2157875,13.89869 7.710035,14.3929375 8.3377075,15.02061 C9.0155475,15.716835 9.89266,16.281225 10.923075,16.37957 C11.958905,16.47845 13.0904625,16.0336525 14.0277075,14.9874625 C14.243695,14.7463425 14.3710075,14.655795 14.40336,14.64494 C14.4341275,14.63464 14.528965,14.6193325 14.8563475,14.7885775 L17.72345,16.9817325 C17.9281,17.1899225 17.899875,17.1947175 17.856025,17.3352825 C17.8107,17.4806175 17.6118,17.7592975 17.353325,18.0258175 C16.20791,19.1756075 14.31121,20.4666875 12.6797925,20.036645 C11.178555,19.7767675 9.45711,18.614895 7.4538225,16.6116025 C6.6253025,15.783085 5.7143375,14.87212 4.97895,14.13673 C2.97566,12.1334425 1.813785,10.4119975 1.55391,8.91076 C1.123865,7.2793425 2.4149375,5.3826375 3.564735,4.237235 C3.831325,3.9788675 4.1099375,3.7798675 4.25527,3.7345275 C4.372195,3.6961 4.4712975,3.701065 4.608825,3.867105 L4.608825,3.867105 Z"
               id="path406" />
            <path
               d="M9.460755,0.87963 C9.481205,1.272355 9.8572075,1.61108 10.2499475,1.590555 C15.91975,1.590555 20.499925,6.170755 20.499925,11.840555 C20.494425,12.23678 20.85365,12.60123 21.249925,12.60123 C21.6462,12.60123 22.00555,12.23678 21.999925,11.840555 C21.999925,5.36008 16.73041,0.090555 10.2499475,0.090555 C9.8184225,0.094305 9.45462,0.48003 9.460755,0.87963 Z M9.460755,3.87963 C9.481205,4.272355 9.8572075,4.61108 10.2499475,4.590555 C14.2628925,4.590555 17.499925,7.827605 17.499925,11.840555 C17.494425,12.23678 17.85365,12.60123 18.249925,12.60123 C18.6462,12.60123 19.00555,12.23678 18.999925,11.840555 C18.999925,7.01693 15.0735525,3.090555 10.2499475,3.090555 C9.80692,3.088055 9.4546275,3.488405 9.460755,3.87963 Z"
               id="path408" />
          </g>
        </g>
      </g>
      <path
         d="M44.9999999,564 C42.2385762,564 40,561.761424 40,559 C40,556.238576 42.2385762,554 44.9999999,554 L58.9999998,554 C60.7863278,554 62.4369629,554.952994 63.330127,556.5 C64.223291,558.047005 64.223291,559.952995 63.330127,561.5 C62.4369629,563.047006 60.7863278,564 58.9999998,564 L44.9999999,564 Z M58.9999998,556 L44.9999999,556 C43.3431457,556 42,557.343146 42,559 C42,560.656854 43.3431457,562 44.9999999,562 L58.9999998,562 C60.656854,562 61.9999997,560.656854 61.9999997,559 C61.9999997,557.343146 60.656854,556 58.9999998,556 L58.9999998,556 Z M58.9999998,560 L57.9999998,560 C57.447715,560 56.9999998,559.552285 56.9999998,559 C56.9999998,558.447715 57.447715,558 57.9999998,558 L58.9999998,558 C59.5522845,558 59.9999998,558.447715 59.9999998,559 C59.9999998,559.552285 59.5522845,560 58.9999998,560 L58.9999998,560 Z M44.9999999,566 L58.9999998,566 C61.7614235,566 63.9999997,568.238576 63.9999997,571 C63.9999997,573.761424 61.7614235,576 58.9999998,576 L44.9999999,576 C42.2385762,576 40,573.761424 40,571 C40,568.238576 42.2385762,566 44.9999999,566 L44.9999999,566 Z M44.9999999,574 L58.9999998,574 C60.656854,574 61.9999997,572.656854 61.9999997,571 C61.9999997,569.343146 60.656854,568 58.9999998,568 L44.9999999,568 C43.3431457,568 42,569.343146 42,571 C42,572.656854 43.3431457,574 44.9999999,574 L44.9999999,574 Z M44.9999999,570 L45.9999999,570 C46.5522847,570 46.9999999,570.447715 46.9999999,571 C46.9999999,571.552285 46.5522847,572 45.9999999,572 L44.9999999,572 C44.4477152,572 44,571.552285 44,571 C44,570.447715 44.4477152,570 44.9999999,570 L44.9999999,570 Z"
         id="_2-toggles"
         fill="#375C9A" />
      <path
         d="M116,640 C109.372583,640 104,634.627417 104,628 C104,621.372583 109.372583,616 116,616 C122.627417,616 128,621.372583 128,628 C128,634.627417 122.627417,640 116,640 L116,640 Z M116,618 C110.477153,618 106,622.477153 106,628 C106,633.522847 110.477153,638 116,638 C121.522847,638 126,633.522847 126,628 C126,625.347835 124.946432,622.804296 123.071068,620.928932 C121.195704,619.053568 118.652165,618 116,618 L116,618 Z M124,628.007 L124,628 L122,628 C122,624.686292 119.313708,622 116,622 C112.686292,622 110,624.686292 110,628 L108,628 C108,623.581722 111.581722,620 116,620 C120.418278,620 124,623.581722 124,628 L124,628.007 L124,628.007 Z M115.049,629.169 C115.031875,629.111552 115.020158,629.052629 115.014,628.993 L115.014,625.008 C115.014,624.463447 115.455447,624.022 116,624.022 C116.544553,624.022 116.986,624.463447 116.986,625.008 L116.986,628.993 C116.97994,629.052316 116.96822,629.110916 116.951,629.168 C118.346289,629.633543 119.198256,631.042032 118.962815,632.493971 C118.727375,633.945911 117.473978,635.013002 116.003073,635.013776 C114.532168,635.014549 113.27765,633.948777 113.040683,632.497085 C112.803716,631.045394 113.654201,629.63601 115.049,629.169 L115.049,629.169 Z M116,633 C116.552285,633 117,632.552285 117,632 C117,631.447715 116.552285,631 116,631 C115.447715,631 115,631.447715 115,632 C115,632.552285 115.447715,633 116,633 L116,633 Z"
         id="speedo1"
         fill="#1FC097" />
      <path
         d="M180,640 C173.372583,640 168,634.627417 168,628 C168,621.372583 173.372583,616 180,616 C186.627417,616 192,621.372583 192,628 C192,634.627417 186.627417,640 180,640 L180,640 Z M180,618 C174.477153,618 170,622.477153 170,628 C170,633.522847 174.477153,638 180,638 C185.522847,638 190,633.522847 190,628 C190,622.477153 185.522847,618 180,618 L180,618 Z M179.92,632.333 C179.88449,632.48127 179.808298,632.616685 179.7,632.724 C179.511096,632.914114 179.246722,633.009215 178.98,632.983 C178.55162,633.012896 178.160306,632.740225 178.04,632.328 L175.22,629.51 C174.904015,629.153891 174.920031,628.613293 175.256544,628.276515 C175.593057,627.939737 176.133642,627.923295 176.49,628.239 L178.67,630.423 L183.13,622.516 C183.25938,622.279269 183.47892,622.104856 183.738776,622.03236 C183.998632,621.959864 184.276755,621.995436 184.51,622.131 C184.992683,622.428823 185.151998,623.055904 184.87,623.548 L179.92,632.333 Z"
         id="accept"
         fill="#1FC097" />
      <path
         d="M311,637 L291,637 C289.895431,637 289,636.104569 289,635 L289,621 C289,619.895431 289.895431,619 291,619 L311,619 C312.104569,619 313,619.895431 313,621 L313,635 C313,636.104569 312.104569,637 311,637 L311,637 Z M294.39,621 L301,627.609 L307.61,621 L294.39,621 L294.39,621 Z M311,621 L310.39,621 L301.79,629.6 C301.767707,629.640888 301.74087,629.67913 301.71,629.714 C301.312911,630.093942 300.687089,630.093942 300.29,629.714 C300.25913,629.67913 300.232293,629.640888 300.21,629.6 L291.61,621 L291,621 L291,635 L311,635 L311,621 L311,621 Z"
         id="letter"
         fill="#22C199" />
      <path
         d="M434.921712,629.389847 C434.837172,630.127777 434.214473,630.686085 433.47176,630.689865 L433.381763,630.689865 L433.271767,630.689865 C432.605066,630.693103 432.009064,631.106218 431.772032,631.729399 C431.535,632.352579 431.705793,633.057379 432.201802,633.502906 C432.772126,634.028591 432.841826,634.904676 432.361797,635.513934 C431.788146,636.226806 431.1338,636.87078 430.411861,637.432962 C430.154907,637.634265 429.838299,637.74438 429.511891,637.745966 C429.098174,637.744862 428.703465,637.572123 428.421927,637.268959 C428.094113,636.931564 427.642356,636.743263 427.171968,636.747952 C426.980332,636.74705 426.79028,636.782686 426.611987,636.852953 C425.987548,637.115416 425.589783,637.735958 425.61202,638.412975 C425.636662,639.181938 425.066548,639.840865 424.302063,639.926997 C423.404715,640.026622 422.498971,640.024273 421.602152,639.919997 C420.829131,639.829565 420.262237,639.149698 420.312195,638.372975 C420.346103,637.689593 419.951181,637.057288 419.322227,636.787952 C419.14114,636.71486 418.947524,636.677833 418.752246,636.678951 C418.282166,636.674818 417.830739,636.862621 417.502287,637.198958 C416.977001,637.777625 416.092184,637.847713 415.482354,637.35896 C414.781284,636.791928 414.147203,636.146745 413.592416,635.435933 C413.112545,634.834219 413.182572,633.963216 413.752411,633.445905 C414.249948,632.985672 414.412901,632.266659 414.162397,631.636879 C413.922557,631.043549 413.352252,630.650216 412.712445,630.636865 L412.652447,630.636865 C411.879442,630.647102 411.213736,630.093734 411.082499,629.331846 C410.9725,628.425492 410.9725,627.509161 411.082499,626.602807 C411.162007,625.841999 411.8181,625.273357 412.58245,625.302789 C413.274018,625.32954 413.915048,624.941758 414.212396,624.316775 C414.473997,623.683455 414.309964,622.954074 413.802409,622.493749 C413.232223,621.968406 413.162514,621.092656 413.642415,620.48372 C414.21411,619.772167 414.864945,619.12801 415.582351,618.563693 C415.843281,618.362642 416.16293,618.252692 416.492321,618.250688 C416.906621,618.251962 417.30163,618.425919 417.582285,618.730695 C417.911374,619.065734 418.362649,619.252391 418.832243,619.247702 C419.023518,619.249716 419.213469,619.215795 419.392225,619.147701 C420.01733,618.884387 420.415116,618.262618 420.392192,617.584679 C420.368126,616.816301 420.938213,616.158277 421.702149,616.072657 C422.599521,615.973494 423.505213,615.975842 424.40206,616.079657 C425.174412,616.170553 425.740905,616.849499 425.692017,617.625679 C425.653661,618.310702 426.049908,618.945927 426.681984,619.212702 C426.863296,619.284916 427.056805,619.321583 427.251966,619.320703 C427.721831,619.32475 428.173105,619.137372 428.501924,618.801696 C429.02391,618.225186 429.904284,618.154227 430.511858,618.639694 C431.216946,619.204826 431.854474,619.849431 432.411795,620.560721 C432.894959,621.165047 432.824892,622.040928 432.251801,622.56075 C431.75367,623.011549 431.587346,623.724038 431.834394,624.348809 C432.081442,624.97358 432.690054,625.379614 433.361764,625.36779 C434.129708,625.361244 434.789669,625.911238 434.921712,626.667808 C435.026096,627.572152 435.026096,628.485503 434.921712,629.389847 L434.921712,629.389847 Z M432.941778,627.066814 C431.665873,627.036867 430.528413,626.255218 430.043012,625.074816 C429.557612,623.894415 429.816137,622.538659 430.701852,621.619736 C430.311766,621.140665 429.876436,620.700292 429.401895,620.304717 C428.780267,620.884168 427.961764,621.205865 427.11197,621.20473 C426.703748,621.207195 426.299157,621.127973 425.922009,620.971727 C424.736328,620.470288 423.962111,619.312052 423.952074,618.024685 C423.336745,617.967692 422.717465,617.967692 422.102136,618.024685 C422.032677,619.264618 421.21153,620.335729 420.032204,620.724723 C419.697685,620.937012 419.323415,621.078901 418.93224,621.141729 C418.087119,621.142781 417.272793,620.824536 416.652315,620.250717 C416.164101,620.645327 415.715344,621.086402 415.31236,621.567735 C416.20809,622.493205 416.467532,623.86281 415.972338,625.051785 C415.455914,626.221302 414.310481,626.987298 413.032435,627.017813 C412.974089,627.642988 412.970743,628.272079 413.022435,628.89784 C414.301463,628.922541 415.4438,629.704161 415.930193,630.887409 C416.416585,632.070658 416.154222,633.429755 415.262361,634.346918 C415.657429,634.821798 416.092328,635.262071 416.562318,635.662936 C417.185767,635.086383 418.003087,634.765151 418.852243,634.762923 C419.26386,634.759817 419.67191,634.83939 420.052203,634.996927 C421.238444,635.496598 422.013141,636.654766 422.022138,637.941969 C422.637443,637.999486 423.256772,637.999486 423.872077,637.941969 C423.911813,636.671182 424.689535,635.540502 425.862011,635.048928 C426.233851,634.899323 426.631172,634.823251 427.031973,634.824924 C427.880549,634.822313 428.698666,635.141001 429.321897,635.716937 C429.806853,635.318685 430.255285,634.877929 430.661853,634.399918 C429.761463,633.47687 429.501458,632.104295 430.001875,630.915869 C430.506674,629.735522 431.658232,628.962297 432.941778,628.941841 C433.002095,628.316951 433.002095,627.687704 432.941778,627.062814 L432.941778,627.066814 Z M423.002106,631.989884 C421.380443,631.996361 419.914855,631.024434 419.289779,629.527998 C418.664702,628.031561 419.003467,626.305867 420.147868,625.156823 C421.292269,624.007778 423.016512,623.662094 424.515367,624.281207 C426.014223,624.900319 426.991961,626.362075 426.991974,627.983827 C426.995292,630.19144 425.20961,631.984367 423.002106,631.989884 L423.002106,631.989884 Z M423.002106,625.997799 C421.898891,626.003315 421.00851,626.901186 421.012183,628.004461 C421.015855,629.107735 421.912195,629.999657 423.015422,629.997828 C424.118649,629.995998 425.012026,629.101108 425.012039,627.997827 C425.012312,627.465476 424.800351,626.954982 424.423096,626.579399 C424.045841,626.203815 423.534425,625.994137 423.002106,625.996799 L423.002106,625.997799 Z"
         id="gear"
         fill="#1FC097" />
      <path
         d="M247,639 L234,639 C232.895431,639 232,638.104569 232,637 L232,617 C232,615.895431 232.895431,615 234,615 L247,615 C248.104569,615 249,615.895431 249,617 L249,637 C249,638.104569 248.104569,639 247,639 L247,639 Z M247,617 L234,617 L234,637 L247,637 L247,617 L247,617 Z M237,619 L244,619 C244.552285,619 245,619.447715 245,620 L245,631 C245,631.552285 244.552285,632 244,632 L237,632 C236.447715,632 236,631.552285 236,631 L236,620 C236,619.447715 236.447715,619 237,619 L237,619 Z M238,630 L243,630 L243,621 L238,621 L238,630 L238,630 Z M240.5,633 C241.328427,633 242,633.671573 242,634.5 C242,635.328427 241.328427,636 240.5,636 C239.671573,636 239,635.328427 239,634.5 C239,633.671573 239.671573,633 240.5,633 L240.5,633 Z"
         id="iphone"
         fill="#1FC097" />
      <path
         d="M357.230723,616.382191 C357.243689,616.366183 357.26264,616.358179 357.276604,616.343172 C357.347752,616.256006 357.434312,616.182745 357.531944,616.127064 L357.531944,616.127064 C357.645163,616.061215 357.772304,616.02316 357.902984,616.016008 L357.91994,616.016008 L357.952855,616.010005 C357.968813,616.010005 357.982777,616 357.998736,616 C358.01474,616.001206 358.030508,616.004572 358.045615,616.010005 C358.056586,616.010005 358.066561,616.010005 358.077532,616.016008 C358.087608,616.01906 358.097969,616.021071 358.108452,616.022011 C358.19647,616.025289 358.283375,616.042859 358.365787,616.074037 C358.401694,616.089045 358.429621,616.112056 358.465529,616.130065 C358.534687,616.164956 358.599056,616.208673 358.657033,616.26013 C358.687361,616.293956 358.715038,616.330082 358.739819,616.368184 L362.522035,618.928464 C362.987429,619.284701 363.133355,619.923207 362.869137,620.447224 C362.771015,620.692335 362.568258,620.880228 362.316909,620.958969 C362.06556,621.037709 361.792239,620.998958 361.572491,620.853427 L358.997153,619.104552 L358.997153,626.9995 C358.997153,627.552061 358.550593,628 357.999733,628 C357.448874,628 357.002314,627.552061 357.002314,626.9995 L357.002314,619.104552 L354.426976,620.847424 C354.207133,620.992578 353.933957,621.031114 353.68273,620.952412 C353.431504,620.873709 353.228744,620.686076 353.13033,620.441221 C352.866954,619.917101 353.012751,619.279159 353.477432,618.922461 L357.230723,616.382191 Z"
         id="cloud-up-path"
         fill="#1FC097" />
      <path
         d="M365.230723,627.382191 C365.243689,627.366183 365.26264,627.358179 365.276604,627.343172 C365.347752,627.256006 365.434312,627.182745 365.531944,627.127064 L365.531944,627.127064 C365.645163,627.061215 365.772304,627.02316 365.902984,627.016008 L365.91994,627.016008 L365.952855,627.010005 C365.968813,627.010005 365.982777,627 365.998736,627 C366.01474,627.001206 366.030508,627.004572 366.045615,627.010005 C366.056586,627.010005 366.066561,627.010005 366.077532,627.016008 C366.087608,627.01906 366.097969,627.021071 366.108452,627.022011 C366.19647,627.025289 366.283375,627.042859 366.365787,627.074037 C366.401694,627.089045 366.429621,627.112056 366.465529,627.130065 C366.534687,627.164956 366.599056,627.208673 366.657033,627.26013 C366.687361,627.293956 366.715038,627.330082 366.739819,627.368184 L370.522035,629.928464 C370.987429,630.284701 371.133355,630.923207 370.869137,631.447224 C370.771015,631.692335 370.568258,631.880228 370.316909,631.958969 C370.06556,632.037709 369.792239,631.998958 369.572491,631.853427 L366.997153,630.104552 L366.997153,637.9995 C366.997153,638.552061 366.550593,639 365.999733,639 C365.448874,639 365.002314,638.552061 365.002314,637.9995 L365.002314,630.104552 L362.426976,631.847424 C362.207133,631.992578 361.933957,632.031114 361.68273,631.952412 C361.431504,631.873709 361.228744,631.686076 361.13033,631.441221 C360.866954,630.917101 361.012751,630.279159 361.477432,629.922461 L365.230723,627.382191 Z"
         id="cloud-up-path-copy"
         fill="#1FC097"
         transform="translate(366.000000, 633.000000) scale(1, -1) translate(-366.000000, -633.000000) " />
      <path
         d="M62,639 L42,639 C40.8954305,639 40,638.104569 40,637 L40,637 L40,636 L40,636 L40,619 C40,617.895431 40.8954305,617 42,617 L50,617 C51.1045695,617 52,617.895431 52,619 L62,619 C63.1045695,619 64,619.895431 64,621 L64,637 C64,638.104569 63.1045695,639 62,639 L62,639 Z M62,621 L50,621 L50,619 L42,619 L42,623 L62,623 L62,621 L62,621 Z M62,625 L42,625 L42,636 L42,636 L42,637 L62,637 L62,636 L62,636 L62,625 L62,625 Z"
         id="folder"
         fill="#1FC097" />
      <path
         d="M128,576 L106,576 C105.447715,576 105,575.552285 105,575 L105,553 C105,552.447715 105.447715,552 106,552 C106.552285,552 107,552.447715 107,553 L107,574 L128,574 C128.552285,574 129,574.447715 129,575 C129,575.552285 128.552285,576 128,576 L128,576 Z M119,572 C118.447715,572 118,571.552285 118,571 L118,560 C118,559.447715 118.447715,559 119,559 C119.552285,559 120,559.447715 120,560 L120,571 C120,571.552285 119.552285,572 119,572 L119,572 Z M111,572 L111,572 C110.447715,572 110,571.552285 110,571 L110,564 C110,563.447715 110.447715,563 111,563 L111,563 C111.552285,563 112,563.447715 112,564 L112,571 C112,571.552285 111.552285,572 111,572 L111,572 Z M123,572 C122.447715,572 122,571.552285 122,571 L122,555 C122,554.447715 122.447715,554 123,554 C123.552285,554 124,554.447715 124,555 L124,571 C124,571.552285 123.552285,572 123,572 L123,572 Z M115,572 C114.447715,572 114,571.552285 114,571 L114,561 C114,560.447715 114.447715,560 115,560 C115.552285,560 116,560.447715 116,561 L116,571 C116,571.552285 115.552285,572 115,572 L115,572 Z"
         id="path424"
         fill="#3066A1" />
      <path
         d="M200.520685,564.073589 L196.733148,566.636326 C196.703167,566.669323 196.68318,566.712318 196.6532,566.736316 C196.633213,566.821307 196.623219,566.910298 196.603232,566.995289 L194.534578,566.995289 C194.606152,566.753676 194.662888,566.507909 194.704467,566.259365 L191.466573,564.068589 C190.999012,563.713939 190.851794,563.075505 191.1168,562.551745 C191.215199,562.306865 191.418263,562.119112 191.67,562.040255 C191.921736,561.961399 192.195556,561.99977 192.415956,562.144787 L194.984285,563.883608 C194.940452,559.843682 192.469145,556.227799 188.722342,554.721473 C184.975539,553.215147 180.6908,554.114898 177.865418,557.001314 L175.277102,557.001314 C178.29898,552.78358 183.691236,550.991932 188.634466,552.563156 C193.577696,554.134379 196.947923,558.711212 196.982986,563.900607 L199.571302,562.153786 C199.791702,562.008769 200.065521,561.970399 200.317258,562.049255 C200.568994,562.128111 200.772059,562.315864 200.870457,562.560744 C201.133209,563.083501 200.98619,563.719391 200.520685,564.073589 L200.520685,564.073589 Z M178.331286,563.956536 C178.079573,564.035191 177.805868,563.996678 177.5856,563.851612 L175.177167,562.225778 C175.069702,562.811405 175.012862,563.405207 175.007277,564.000596 C175.007868,568.062374 177.46416,571.720194 181.222375,573.255895 C184.980591,574.791596 189.293858,573.899987 192.136138,570.999878 L194.724454,570.999878 C191.689708,575.231788 186.271055,577.018776 181.316116,575.421741 C176.361178,573.824706 173.003888,569.20913 173.008577,564.000596 C173.014025,563.320022 173.08092,562.641332 173.208447,561.972804 L170.430254,563.851612 C170.209986,563.996678 169.936281,564.035191 169.684568,563.956536 C169.432855,563.877881 169.229703,563.690361 169.131098,563.445653 C168.865952,562.921591 169.013154,562.282804 169.480871,561.927809 L173.268408,559.366072 C173.424554,559.162258 173.661735,559.036666 173.917985,559.022107 C173.977472,559.011436 174.038382,559.011436 174.097868,559.022107 C174.354119,559.036666 174.5913,559.162258 174.747446,559.366072 L178.534983,561.927809 C179.002699,562.282804 179.149902,562.921591 178.884755,563.445653 C178.786151,563.690361 178.582999,563.877881 178.331286,563.956536 Z"
         id="path426"
         fill="#2870A7" />
      <circle
         id="Oval"
         fill="#FFFFFF"
         cx="46.5"
         cy="685.5"
         r="2.5" />
      <path
         d="M60.7,679 L42.3,679 C41.03155,679 40,680.0776 40,681.4 L40,688.6 C40,689.9236 41.03155,691 42.3,691 L52.65,691 L52.65,688.6 L42.3,688.6 L42.3,681.4 L60.7,681.4 L60.69885,683.8 L63,683.8 L63,681.4 C63,680.0776 61.96845,679 60.7,679 L60.7,679 Z"
         id="path429"
         fill="#FFFFFF" />
      <path
         d="M61.8571429,689.6 L61.8571429,689 C61.8571429,687.3464 60.5748571,686 59,686 C57.4251429,686 56.1428571,687.3464 56.1428571,689 L56.1428571,689.6 C55.512,689.6 55,690.1388 55,690.8 L55,696.8 C55,697.4624 55.512,698 56.1428571,698 L61.8571429,698 C62.488,698 63,697.4624 63,696.8 L63,690.8 C63,690.1388 62.488,689.6 61.8571429,689.6 L61.8571429,689.6 Z M58.4285714,688.914286 C58.4285714,688.631429 58.648,688.4 58.9183673,688.4 C59.1887347,688.4 59.4081633,688.631429 59.4081633,688.914286 L59.4081633,689.428571 L58.4285714,689.428571 L58.4285714,688.914286 L58.4285714,688.914286 Z M60.7142857,695.6 L57.2857143,695.6 L57.2857143,692 L60.7142857,692 L60.7142857,695.6 L60.7142857,695.6 Z"
         id="path431"
         fill="#FFFFFF" />
      <circle
         id="circle433"
         fill="#FFFFFF"
         cx="51.5"
         cy="685.5"
         r="2.5" />
      <g
         id="noun_929174_cc"
         transform="translate(248.000000, 157.000000)"
         fill-rule="nonzero"
         fill="#98B4BD">
        <path
           d="M17.8276583,16.995948 L13.0411084,12.2093981 C14.1861316,10.870466 14.8121691,9.18665447 14.8121691,7.40598654 C14.8121691,5.42768447 14.0416313,3.56800209 12.6428992,2.16926998 C11.243971,0.770341808 9.38409254,5.40609224e-14 7.40598654,5.40609224e-14 C5.42768447,5.40609224e-14 3.56800209,0.770537873 2.16926998,2.16926998 C0.770341808,3.56800209 0,5.42768447 0,7.40598654 C0,9.38428861 0.770537873,11.243971 2.16926998,12.6428992 C3.56800209,14.0418273 5.42768447,14.8121691 7.40598654,14.8121691 C9.18665447,14.8121691 10.8702699,14.1861316 12.2093981,13.0411084 L16.995948,17.8276583 C17.1108424,17.9425528 17.2614208,18 17.4118032,18 C17.5621855,18 17.7127639,17.9425528 17.8276583,17.8276583 C18.0574472,17.5982616 18.0574472,17.2257369 17.8276583,16.995948 Z M7.40598654,13.6359715 C5.74197765,13.6359715 4.17757009,12.9877786 3.00098033,11.8111888 C1.8241945,10.634403 1.17619763,9.06999543 1.17619763,7.40598654 C1.17619763,5.74197765 1.8241945,4.17757009 3.00098033,3.00098033 C4.17757009,1.82439056 5.74178158,1.17619763 7.40598654,1.17619763 C9.06979936,1.17619763 10.634403,1.82439056 11.8111888,3.00117639 C12.9877786,4.17757009 13.6359715,5.74197765 13.6359715,7.40598654 C13.6359715,9.06999543 12.9877786,10.634403 11.8111888,11.8111888 C10.634403,12.9877786 9.06979936,13.6359715 7.40598654,13.6359715 Z"
           id="path435" />
      </g>
      <path
         d="M218.018207,170.833221 C217.766064,170.833221 217.513742,170.74454 217.3166,170.566157 C216.9091,170.196795 216.89285,169.582327 217.280171,169.193732 L219.558385,166.909817 L217.282492,164.641732 C216.893742,164.254497 216.908028,163.640029 217.314457,163.269306 C217.721064,162.898583 218.365528,162.91237 218.754278,163.299774 L221.7016,166.236455 C222.077314,166.610923 222.078028,167.20071 221.703921,167.57637 L218.756778,170.531434 C218.556242,170.731774 218.28785,170.833221 218.018207,170.833221 L218.018207,170.833221 Z"
         id="path438"
         fill="#2E81C1" />
      <path
         d="M431,300 C428.238576,300 426,297.761424 426,295 C426,292.238576 428.238576,290 431,290 L445,290 C446.786328,290 448.436963,290.952994 449.330127,292.5 C450.223291,294.047005 450.223291,295.952995 449.330127,297.5 C448.436963,299.047006 446.786328,300 445,300 L431,300 Z M445,292 L431,292 C429.343146,292 428,293.343146 428,295 C428,296.656854 429.343146,298 431,298 L445,298 C446.656854,298 448,296.656854 448,295 C448,293.343146 446.656854,292 445,292 L445,292 Z M445,296 L444,296 C443.447715,296 443,295.552285 443,295 C443,294.447715 443.447715,294 444,294 L445,294 C445.552285,294 446,294.447715 446,295 C446,295.552285 445.552285,296 445,296 L445,296 Z M431,302 L445,302 C447.761423,302 450,304.238576 450,307 C450,309.761424 447.761423,312 445,312 L431,312 C428.238576,312 426,309.761424 426,307 C426,304.238576 428.238576,302 431,302 L431,302 Z M431,310 L445,310 C446.656854,310 448,308.656854 448,307 C448,305.343146 446.656854,304 445,304 L431,304 C429.343146,304 428,305.343146 428,307 C428,308.656854 429.343146,310 431,310 L431,310 Z M431,306 L432,306 C432.552285,306 433,306.447715 433,307 C433,307.552285 432.552285,308 432,308 L431,308 C430.447715,308 430,307.552285 430,307 C430,306.447715 430.447715,306 431,306 L431,306 Z"
         id="path440"
         fill="url(#linearGradient-1)" />
      <g
         id="Group-26"
         transform="translate(128.000000, 215.000000)"
         fill-rule="nonzero">
        <path
           d="M0,16 L48,16 L48,31.1578596 C48,31.6229065 47.6294063,32 47.172375,32 L0.827625,32 C0.37059375,32 0,31.6229065 0,31.1578596 L0,16 Z"
           id="path442"
           fill="#FFE15A" />
        <path
           d="M0,16 L0,0.842140408 C0,0.377093457 0.370593026,0 0.827623384,0 L47.1723766,0 C47.629407,0 48,0.377093457 48,0.842140408 L47.9999063,16 L0,16 Z"
           id="path444"
           fill="#4173CD" />
      </g>
      <g
         id="united-states"
         transform="translate(216.000000, 214.000000)">
        <path
           d="M47.0804211,31.4128655 L0.826011696,31.4128655 C0.369871345,31.4128655 0,31.0429942 0,30.5868538 L0,0.851836257 C0,0.395695906 0.369871345,0.0258245614 0.826011696,0.0258245614 L47.0805146,0.0258245614 C47.536655,0.0258245614 47.9065263,0.395695906 47.9065263,0.851836257 L47.9065263,30.5868538 C47.9064327,31.0430877 47.5365614,31.4128655 47.0804211,31.4128655 Z"
           id="path447"
           fill="#F5F5F5"
           fill-rule="nonzero" />
        <g
           id="g458"
           fill-rule="nonzero"
           fill="#FF4B55">
          <path
             d="M47.9999063,3.02582456 L0,3.02582456 L0,1.05213729 C0,0.485386662 0.370593026,0.0258245614 0.827623384,0.0258245614 L47.1723766,0.0258245614 C47.629407,0.0258245614 48,0.485386662 48,1.05213729 L47.9999063,3.02582456 L47.9999063,3.02582456 Z"
             id="path449" />
          <rect
             id="rect451"
             x="0"
             y="6"
             width="48"
             height="3" />
          <rect
             id="Rectangle-path-Copy"
             x="0"
             y="12"
             width="48"
             height="3" />
          <rect
             id="Rectangle-path-Copy-2"
             x="0"
             y="18"
             width="48"
             height="3" />
          <rect
             id="Rectangle-path-Copy-3"
             x="0"
             y="24"
             width="48"
             height="3" />
          <path
             d="M47.172375,32.9984561 L0.827625,32.9984561 C0.37059375,32.9984561 0,32.5388762 0,31.9721036 L0,29.9984561 L48,29.9984561 L48,31.9722199 C48,32.5389925 47.6294063,32.9984561 47.172375,32.9984561 Z"
             id="path456" />
        </g>
        <path
           d="M0.826011696,0.0259181287 C0.275337232,0.288095094 0,0.58088812 0,0.904297205 C0,12.3014324 0,18 0,18 C0,18 7.33333333,18 22,18 L22,0.0259181287 L0.826011696,0.0259181287 Z"
           id="path460"
           fill="#41479B"
           fill-rule="nonzero" />
        <circle
           id="circle462"
           fill="#FFFFFF"
           cx="3"
           cy="3"
           r="1" />
        <circle
           id="Oval-Copy"
           fill="#FFFFFF"
           cx="7"
           cy="3"
           r="1" />
        <circle
           id="Oval-Copy-2"
           fill="#FFFFFF"
           cx="11"
           cy="3"
           r="1" />
        <circle
           id="Oval-Copy-3"
           fill="#FFFFFF"
           cx="15"
           cy="3"
           r="1" />
        <circle
           id="Oval-Copy-4"
           fill="#FFFFFF"
           cx="19"
           cy="3"
           r="1" />
        <circle
           id="Oval-Copy-9"
           fill="#FFFFFF"
           cx="3"
           cy="9"
           r="1" />
        <circle
           id="Oval-Copy-8"
           fill="#FFFFFF"
           cx="7"
           cy="9"
           r="1" />
        <circle
           id="Oval-Copy-7"
           fill="#FFFFFF"
           cx="11"
           cy="9"
           r="1" />
        <circle
           id="Oval-Copy-6"
           fill="#FFFFFF"
           cx="15"
           cy="9"
           r="1" />
        <circle
           id="Oval-Copy-13"
           fill="#FFFFFF"
           cx="5"
           cy="6"
           r="1" />
        <circle
           id="Oval-Copy-12"
           fill="#FFFFFF"
           cx="9"
           cy="6"
           r="1" />
        <circle
           id="Oval-Copy-11"
           fill="#FFFFFF"
           cx="13"
           cy="6"
           r="1" />
        <circle
           id="Oval-Copy-10"
           fill="#FFFFFF"
           cx="17"
           cy="6"
           r="1" />
        <circle
           id="Oval-Copy-5"
           fill="#FFFFFF"
           cx="19"
           cy="9"
           r="1" />
        <circle
           id="Oval-Copy-22"
           fill="#FFFFFF"
           cx="3"
           cy="15"
           r="1" />
        <circle
           id="Oval-Copy-21"
           fill="#FFFFFF"
           cx="7"
           cy="15"
           r="1" />
        <circle
           id="Oval-Copy-20"
           fill="#FFFFFF"
           cx="11"
           cy="15"
           r="1" />
        <circle
           id="Oval-Copy-19"
           fill="#FFFFFF"
           cx="15"
           cy="15"
           r="1" />
        <circle
           id="Oval-Copy-18"
           fill="#FFFFFF"
           cx="5"
           cy="12"
           r="1" />
        <circle
           id="Oval-Copy-17"
           fill="#FFFFFF"
           cx="9"
           cy="12"
           r="1" />
        <circle
           id="Oval-Copy-16"
           fill="#FFFFFF"
           cx="13"
           cy="12"
           r="1" />
        <circle
           id="Oval-Copy-15"
           fill="#FFFFFF"
           cx="17"
           cy="12"
           r="1" />
        <circle
           id="Oval-Copy-14"
           fill="#FFFFFF"
           cx="19"
           cy="15"
           r="1" />
      </g>
      <g
         id="Group-28"
         transform="translate(40.000000, 110.000000)">
        <mask
           id="mask-5"
           fill="white">
          <use
             xlink:href="#path-4"
             id="use487" />
        </mask>
        <use
           id="Mask-Copy"
           fill="#4173CD"
           xlink:href="#path-4" />
        <rect
           id="Rectangle-4-Copy"
           fill="#FFE15A"
           mask="url(#mask-5)"
           x="0"
           y="5"
           width="10"
           height="5" />
      </g>
      <g
         id="Group-29"
         transform="translate(80.000000, 110.000000)">
        <mask
           id="mask-7"
           fill="white">
          <use
             xlink:href="#path-6"
             id="use493" />
        </mask>
        <use
           id="Mask-Copy-2"
           fill="#41479B"
           xlink:href="#path-6" />
        <rect
           id="Rectangle-4-Copy-2"
           fill="#FF4B55"
           mask="url(#mask-7)"
           x="0"
           y="7"
           width="10"
           height="3" />
        <rect
           id="Rectangle-4-Copy-7"
           fill="#EFEBEC"
           mask="url(#mask-7)"
           x="0"
           y="0"
           width="10"
           height="3" />
      </g>
      <path
         d="M88.8999944,167.875062 L102.927307,167.875062 L98.1636365,172.506473 C97.8121887,172.848163 97.8121887,173.402042 98.1636365,173.743732 C98.5150843,174.085423 99.0850057,174.085423 99.4364535,173.743732 L105.736414,167.618685 C106.087862,167.276994 106.087862,166.722896 105.736414,166.381425 L99.4364535,160.256377 C99.2607296,160.085532 99.0303311,160 98.7999325,160 C98.5697589,160 98.3393604,160.085532 98.1636365,160.256377 C97.8121887,160.598067 97.8121887,161.152165 98.1636365,161.493637 L102.927307,166.125048 L88.8999944,166.125048 C88.4029725,166.125048 88,166.516832 88,167.000055 C88,167.483277 88.4029725,167.875062 88.8999944,167.875062 L88.8999944,167.875062 Z"
         id="path500"
         fill="#C5C5C5" />
      <polygon
         id="polygon502"
         fill="#FFFFFF"
         fill-rule="nonzero"
         transform="translate(142.000000, 167.000000) scale(-1, 1) translate(-142.000000, -167.000000) "
         points="148 166.25 138.85 166.25 143.05 162.05 142 161 136 167 142 173 143.05 171.95 138.85 167.75 148 167.75" />
      <polygon
         id="Shape-Copy-4"
         fill="#597A8D"
         fill-rule="nonzero"
         transform="translate(302.000000, 167.000000) scale(-1, 1) translate(-302.000000, -167.000000) "
         points="308 166.25 298.85 166.25 303.05 162.05 302 161 296 167 302 173 303.05 171.95 298.85 167.75 308 167.75" />
      <path
         d="M181.483146,169.492308 L178.955056,167.069231 C178.730337,166.853846 178.393258,166.853846 178.168539,167.069231 L178.168539,167.069231 C177.94382,167.284615 177.94382,167.607692 178.168539,167.823077 C178.168539,167.823077 178.168539,167.823077 178.168539,167.823077 L181.483146,171 L187.831461,164.915385 C188.05618,164.7 188.05618,164.376923 187.831461,164.161538 L187.831461,164.161538 C187.606742,163.946154 187.269663,163.946154 187.044944,164.161538 L181.483146,169.492308 Z"
         id="path505"
         fill="#FFFFFF"
         fill-rule="nonzero" />
      <path
         d="M53.9273067,167.875062 L49.1636365,172.506473 C48.8121887,172.848163 48.8121887,173.402042 49.1636365,173.743732 C49.5150843,174.085423 50.0850057,174.085423 50.4364535,173.743732 L56.7364141,167.618685 C57.087862,167.276994 57.087862,166.722896 56.7364141,166.381425 L50.4364535,160.256377 C50.2607296,160.085532 50.0303311,160 49.7999325,160 C49.5697589,160 49.3393604,160.085532 49.1636365,160.256377 C48.8121887,160.598067 48.8121887,161.152165 49.1636365,161.493637 L53.9273067,166.125048 L39.8999944,166.125048 C39.4029725,166.125048 39,166.516832 39,167.000055 C39,167.483277 39.4029725,167.875062 39.8999944,167.875062 L53.9273067,167.875062 Z"
         id="Shape-Copy"
         fill="#C5C5C5"
         transform="translate(48.000000, 167.000000) scale(-1, 1) translate(-48.000000, -167.000000) " />
      <path
         d="M110.515513,505.977369 L110.515513,504.248939 L103.73747,501.490806 L110.515513,498.695898 L110.515513,496.967468 L102,500.644979 L102,502.318246 L110.515513,505.977369 Z M114.615752,508 L119.140811,495 L117.384248,495 L112.859189,508 L114.615752,508 Z M130,502.318246 L130,500.644979 L121.484487,496.967468 L121.484487,498.695898 L128.26253,501.490806 L121.484487,504.248939 L121.484487,505.977369 L130,502.318246 Z"
         id="&lt;/&gt;"
         fill="#1A457A" />
      <g
         id="g518"
         transform="translate(236.000000, 490.000000)"
         fill="#1A457A">
        <g
           id="g516"
           transform="translate(0.000000, 0.159455)">
          <g
             transform="translate(0.000005, 0.000000)"
             id="g514">
            <path
               d="M7.6306,13.1921825 C7.1111075,12.69673 6.7683,12.0970675 6.7025325,11.5238425 C6.64948,10.96811 6.8179,10.387595 7.6029875,9.68426 C7.862875,9.4514375 8.2025975,9.16452 8.370845,8.6622875 C8.5391075,8.16004 8.4262975,7.580395 8.1167375,7.0049975 C7.2536575,5.93541 6.46461,4.7249625 5.6860575,3.8230175 C5.1518625,3.28882 4.37997,3.125255 3.807795,3.303745 C3.2675425,3.470705 2.8509625,3.8394375 2.5040775,4.17657 C0.54843,6.132215 -0.27185,8.1441475 0.07892,10.170405 C0.4296925,12.196665 1.823495,14.10259 3.91829,16.197385 C4.74681,17.025905 5.657775,17.93687 6.3931625,18.67226 C8.4879575,20.767055 10.393885,22.16086 12.420145,22.51163 C14.446405,22.8623975 16.458335,22.0421175 18.413975,20.0864725 C18.7511,19.739585 19.11985,19.3230075 19.2868,18.7827525 C19.4653,18.2105825 19.3018,17.4386875 18.767525,16.9044925 C17.8656,16.1259375 16.6551425,15.3368925 15.5855525,14.4738125 C15.01016,14.16424 14.4305125,14.0514425 13.928265,14.219705 C13.4260325,14.3879525 13.1391225,14.7276825 12.90629,14.98756 C12.202955,15.77265 11.62244,15.94107 11.0667075,15.8880175 C10.4934825,15.82225 9.8937475,15.4795125 9.3983675,14.9599475 L7.6306,13.1921825 Z M4.608825,4.867105 L6.80197,7.7341925 C6.97121,8.0615775 6.955895,8.15643 6.9456,8.187185 C6.93475,8.2195425 6.844195,8.34684 6.603085,8.5628425 C5.5568975,9.5000875 5.1121,10.631645 5.21098,11.667475 C5.309325,12.69789 5.873805,13.574915 6.56994,14.2528425 C7.2157875,14.89869 7.710035,15.3929375 8.3377075,16.02061 C9.0155475,16.716835 9.89266,17.281225 10.923075,17.37957 C11.958905,17.47845 13.0904625,17.0336525 14.0277075,15.9874625 C14.243695,15.7463425 14.3710075,15.655795 14.40336,15.64494 C14.4341275,15.63464 14.528965,15.6193325 14.8563475,15.7885775 L17.72345,17.9817325 C17.9281,18.1899225 17.899875,18.1947175 17.856025,18.3352825 C17.8107,18.4806175 17.6118,18.7592975 17.353325,19.0258175 C16.20791,20.1756075 14.31121,21.4666875 12.6797925,21.036645 C11.178555,20.7767675 9.45711,19.614895 7.4538225,17.6116025 C6.6253025,16.783085 5.7143375,15.87212 4.97895,15.13673 C2.97566,13.1334425 1.813785,11.4119975 1.55391,9.91076 C1.123865,8.2793425 2.4149375,6.3826375 3.564735,5.237235 C3.831325,4.9788675 4.1099375,4.7798675 4.25527,4.7345275 C4.372195,4.6961 4.4712975,4.701065 4.608825,4.867105 L4.608825,4.867105 Z"
               id="path509"
               fill-rule="nonzero" />
            <rect
               id="Rectangle-29"
               x="10.999995"
               y="2.840545"
               width="2"
               height="5"
               rx="1" />
            <rect
               id="Rectangle-29-Copy"
               x="18.999995"
               y="3.840545"
               width="2"
               height="3"
               rx="1" />
            <rect
               id="Rectangle-29-Copy-2"
               x="14.999995"
               y="0.840545"
               width="2"
               height="9"
               rx="1" />
          </g>
        </g>
      </g>
      <g
         id="noun_261240_cc"
         transform="translate(297.000000, 489.000000)"
         fill-rule="nonzero"
         fill="#1A457A">
        <path
           d="M20.4000861,3.41912461 C20.8000287,3.94212647 21,4.50871181 21,5.20604761 C21,5.9469669 21,6.68788619 21,7.42880548 C21,8.38764221 20.4000861,8.99781104 19.5602067,8.99781104 C19.0002871,8.99781104 18.4803618,8.99781104 17.9204422,8.99781104 C17.4005168,8.99781104 16.8805915,8.99781104 16.3206719,8.99781104 C15.4008039,8.99781104 14.8408843,8.38764221 14.8408843,7.385222 C14.8408843,6.6443027 14.8408843,5.9469669 14.8408843,5.20604761 C14.8408843,4.98813017 14.8008901,4.94454668 14.640913,4.85737971 C13.8810221,4.50871181 13.081137,4.33437785 12.2812518,4.24721088 C10.6414873,4.07287693 9.04171697,4.11646042 7.44194666,4.50871181 C7.1219926,4.59587878 6.76204428,4.77021273 6.44209022,4.85737971 C6.28211319,4.9009632 6.20212467,5.03171366 6.20212467,5.20604761 C6.20212467,5.9469669 6.20212467,6.68788619 6.20212467,7.42880548 C6.20212467,8.4312257 5.64220507,9.04139453 4.7623314,8.99781104 C3.68248644,8.99781104 2.60264149,8.99781104 1.48280227,8.99781104 C0.562934345,8.99781104 0.00301473847,8.38764221 0.00301473847,7.385222 C0.00301473847,6.73146968 0.0430089961,6.03413388 0.00301473847,5.38038156 C-0.0369795192,4.37796134 0.3229688,3.63704205 0.962876922,3.02687322 C1.88274485,2.15520347 3.00258406,1.58861813 4.16241753,1.15278325 C6.76204428,0.150363033 9.44165954,-0.198304869 12.2012633,0.106779545 C14.2409705,0.324696984 16.2006891,0.760531861 18.0804192,1.71936859 C18.9202986,2.02445301 19.760178,2.59103835 20.4000861,3.41912461 Z M5.5,11 C4.67241379,11 4,11.6724138 4,12.5 C4,13.3275862 4.67241379,14 5.5,14 C6.32758621,14 7,13.3275862 7,12.5 C7,11.6724138 6.32758621,11 5.5,11 Z M10.5,11 C9.67241379,11 9,11.6724138 9,12.5 C9,13.3275862 9.67241379,14 10.5,14 C11.3275862,14 12,13.3275862 12,12.5 C12,11.6724138 11.3275862,11 10.5,11 Z M15.5,11 C14.6724138,11 14,11.6724138 14,12.5 C14,13.3275862 14.6724138,14 15.5,14 C16.3275862,14 17,13.3275862 17,12.5 C17,11.6724138 16.3275862,11 15.5,11 Z M5.5,16 C4.67241379,16 4,16.6724138 4,17.5 C4,18.3275862 4.67241379,19 5.5,19 C6.32758621,19 7,18.3275862 7,17.5 C7,16.6724138 6.32758621,16 5.5,16 Z M10.5,16 C9.67241379,16 9,16.6724138 9,17.5 C9,18.3275862 9.67241379,19 10.5,19 C11.3275862,19 12,18.3275862 12,17.5 C12,16.6724138 11.3275862,16 10.5,16 Z M15.5,16 C14.6724138,16 14,16.6724138 14,17.5 C14,18.3275862 14.6724138,19 15.5,19 C16.3275862,19 17,18.3275862 17,17.5 C17,16.6724138 16.3275862,16 15.5,16 Z M10.5,21 C9.67241379,21 9,21.6724138 9,22.5 C9,23.3275862 9.67241379,24 10.5,24 C11.3275862,24 12,23.3275862 12,22.5 C12,21.6724138 11.3275862,21 10.5,21 Z"
           id="path520" />
      </g>
      <g
         id="noun_949845_cc"
         transform="translate(358.000000, 489.000000)"
         fill-rule="nonzero"
         fill="#1A457A">
        <g
           id="g527">
          <path
             d="M19.1233095,0.180153282 C19.2795624,0.18141187 19.4289627,0.245003775 19.5388351,0.357020902 L25.5962752,6.5106854 C26.1362177,7.06023517 26.1362177,7.96268603 25.5962752,8.5122358 L10.7573937,23.6031459 C10.2166268,24.1535299 9.31287155,24.1535299 8.77210466,23.6031459 L0.406188934,15.0848713 C-0.133753548,14.5352917 -0.133753548,13.6421356 0.406188934,13.092556 L12.9273608,0.357020902 C13.0372333,0.245003775 13.1866335,0.18141187 13.3428865,0.180153282 L19.1233095,0.180153282 Z M18.4204545,2.1967669 L13.5369318,2.1967669 L2.15056818,13.7881928 C2.07074366,13.869417 2.07074366,13.9990896 2.15056818,14.0803137 L9.87215909,21.9340053 C9.95122273,22.0144595 10.0743455,22.0144595 10.1534091,21.9340053 L23.8494318,8.01397099 C23.9292564,7.93271936 23.9292564,7.79446786 23.8494318,7.71321623 L18.4204545,2.1967669 Z"
             id="path523" />
          <path
             d="M11.96875,5.42214123 C12.2096173,5.42214123 12.45271,5.51364494 12.6335227,5.69374617 C13.1856836,6.23597827 13.7348991,6.78117086 14.2869318,7.3233758 C14.2941045,7.33043753 14.3053409,7.33342519 14.3124864,7.34021531 C14.3182915,7.34570326 14.3239747,7.35131779 14.3295318,7.35705481 C14.3575856,7.37992082 14.3832809,7.40551484 14.4062364,7.43345728 C14.4183035,7.44702369 14.4296813,7.46118296 14.4403273,7.47588198 C15.5872791,8.60249926 16.7377791,9.72531407 17.8835091,10.8539684 C18.1672682,11.1324721 18.3568736,11.2483659 18.4801,11.6093778 C18.5417118,11.7899136 18.5186282,12.0507901 18.4374864,12.2035136 C18.3563445,12.3562099 18.2634945,12.4361704 18.1818045,12.5175432 L16.1960091,14.5036815 L16.1789636,14.520521 C16.1735228,14.5291885 16.1678388,14.5377021 16.1619182,14.5460519 C16.1231525,14.6027814 16.0739994,14.6517276 16.0170318,14.6903284 C16.0113993,14.6932329 16.0057166,14.6960399 15.9999864,14.6987481 L13.13635,17.5675753 L13.1193045,17.5931062 C13.1137475,17.5988432 13.1080643,17.6044577 13.1022591,17.6099457 C13.0619097,17.6705869 13.0097418,17.7225401 12.94885,17.7627235 L12.9403409,17.7627235 L11.0568182,19.655484 C10.9150245,19.7967457 10.7521218,19.9136444 10.5369318,20.0034642 C10.4293355,20.0483605 10.3138845,20.0842938 10.1534091,20.0883407 C9.99293364,20.0924148 9.76201,20.0439877 9.59943182,19.876163 L7.99715909,18.229558 C7.99142881,18.2268498 7.98574613,18.2240428 7.98011364,18.2211383 C7.95872426,18.2028845 7.93877887,18.1830166 7.92045455,18.1617111 C7.90839112,18.1481416 7.89701341,18.1339825 7.88636364,18.1192864 L5.83238636,16.0228222 C5.80434689,15.9999505 5.77865308,15.9743669 5.75568182,15.9464469 C5.74361772,15.9328686 5.73224,15.9187004 5.72159091,15.9039951 L4.06818182,14.2149654 L4.06818182,14.2065457 C3.71684364,13.8507975 3.71025427,13.2591062 4.06818182,12.8994198 L4.07670455,12.891 L9.15625,7.84086469 C9.15622816,7.83805815 9.15622816,7.83525148 9.15625,7.83244494 C9.17692016,7.80785128 9.19973654,7.7851288 9.22443182,7.7645437 L9.26704545,7.72209185 C9.27267769,7.71918679 9.27836037,7.71637978 9.28409091,7.7136721 L11.3125,5.69361037 C11.4933127,5.51350914 11.7278827,5.42200543 11.96875,5.42200543 L11.96875,5.42214123 Z M11.9772591,6.56798815 L10.3835091,8.15516593 L11.5852136,9.34343753 L13.1960091,7.76473383 C12.7900627,7.36547457 12.3835136,6.96692148 11.9772591,6.56798815 Z M13.9715773,8.52862272 L12.3522591,10.1073264 L13.8096455,11.5671975 L15.4204409,9.95454864 C14.9377191,9.47902272 14.4545282,9.00398568 13.9715773,8.52862272 Z M9.60794091,8.91905481 L7.30680455,11.2192227 L8.90055455,12.797921 C8.91262165,12.8114874 8.92399951,12.8256467 8.93464545,12.8403457 C8.93751272,12.8431211 8.94034925,12.8459279 8.94315455,12.8487654 L11.0482682,14.9367556 C11.10916,14.9769389 11.1613279,15.0288921 11.2016773,15.0895333 L12.6420182,16.5239333 L14.9431545,14.2322667 L13.6051136,12.8912173 C13.4343043,12.838056 13.3005401,12.7048422 13.2471591,12.5347358 L11.3039773,10.599556 C11.2238915,10.5547429 11.156466,10.4905145 11.1079545,10.4128277 L9.60795455,8.91900049 L9.60794091,8.91905481 Z M16.1960091,10.7269388 L14.5766909,12.3310864 L15.7102136,13.459958 L17.3295318,11.8388025 C17.2872564,11.7917877 17.2906982,11.7976272 17.1164636,11.6266247 C16.8108836,11.3255778 16.5016027,11.0280128 16.1960091,10.7269388 L16.1960091,10.7269388 Z M6.53975909,11.9831062 L4.94600909,13.5618099 L6.16475909,14.8010074 L7.78407727,13.2223037 L6.53975909,11.9831062 Z M8.55964545,13.9946667 L6.92328182,15.5818716 L8.32100909,17.0077975 L9.95737273,15.3866691 L8.55964545,13.9946667 Z M10.7329409,16.1590321 L9.08805455,17.7886617 L10.2130545,18.9429827 C10.2407118,18.9239704 10.2739436,18.8984667 10.2812364,18.8920568 L11.8749864,17.2963778 L10.7329409,16.1590321 L10.7329409,16.1590321 Z"
             id="path525" />
        </g>
      </g>
      <g
         id="noun_765951_cc"
         transform="translate(170.000000, 496.000000)"
         fill-rule="nonzero"
         fill="#1C477C">
        <path
           d="M2.55795385e-13,6 C2.55795385e-13,9.30434783 2.58747994,12 5.75922953,12 L20.2407705,12 C23.4125201,12 26,9.30434783 26,6 C26,2.69565217 23.4542536,4.6629367e-14 20.282504,4.6629367e-14 C17.1107544,4.6629367e-14 14.4815409,2.69565217 14.4815409,6 C14.4815409,7.65217391 15.1492777,9.17391304 16.1926164,10.2608696 L9.84911717,10.2608696 C10.8924559,9.17391304 11.5601926,7.65217391 11.5601926,6 C11.5601926,2.69565217 8.97271268,4.6629367e-14 5.80096308,4.6629367e-14 C2.62921348,4.6629367e-14 2.55795385e-13,2.69565217 2.55795385e-13,6 Z M16.1508828,6 C16.1508828,3.65217391 17.9871589,1.73913043 20.2407705,1.73913043 C22.494382,1.73913043 24.3306581,3.65217391 24.3306581,6 C24.3306581,8.34782609 22.494382,10.2608696 20.2407705,10.2608696 C17.9871589,10.2608696 16.1508828,8.34782609 16.1508828,6 Z M5.75922953,1.73913043 C8.01284109,1.73913043 9.84911717,3.65217391 9.84911717,6 C9.84911717,8.34782609 8.01284109,10.2608696 5.75922953,10.2608696 C3.50561798,10.2608696 1.66934189,8.34782609 1.66934189,6 C1.66934189,3.65217391 3.50561798,1.73913043 5.75922953,1.73913043 Z"
           id="path530" />
      </g>
      <path
         d="M487,640 C480.372583,640 475,634.627417 475,628 C475,621.372583 480.372583,616 487,616 C493.627417,616 499,621.372583 499,628 C498.993936,634.624903 493.624903,639.993936 487,640 L487,640 Z M487,617.994 C481.47436,617.996209 476.996528,622.477025 476.998,628.002666 C476.999473,633.528306 481.479692,638.006735 487.005333,638.005999 C492.530973,638.005263 497.01,633.52564 497.01,628 C497.002834,622.475248 492.524754,617.998958 487,617.994 L487,617.994 Z M485.62,630.243 C484.62,629.243 482,623.003 482,623.003 C482,623.003 488.24,625.623 489.24,626.623 C490.214858,627.626781 490.203161,629.227311 489.213736,630.216736 C488.224311,631.206161 486.623781,631.217858 485.62,630.243 L485.62,630.243 Z M487.72,627.359 C486.852544,626.831436 485.942747,626.376872 485,626 C485.37447,626.942401 485.829488,627.850764 486.36,628.715 C486.598766,628.974157 486.960219,629.081852 487.301889,628.995637 C487.643558,628.909422 487.910641,628.643126 487.997862,628.301711 C488.085083,627.960297 487.978452,627.598528 487.72,627.359 L487.72,627.359 Z"
         id="speedo2"
         fill="#22C199"
         transform="translate(487.000000, 628.000000) scale(-1, 1) translate(-487.000000, -628.000000) " />
      <path
         d="M561,640 L541,640 C539.895431,640 539,639.104569 539,638 L539,622 C539,620.895431 539.895431,620 541,620 L546,620 L546,618 C546,616.895431 546.895431,616 548,616 L554,616 C555.104569,616 556,616.895431 556,618 L556,620 L561,620 C562.104569,620 563,620.895431 563,622 L563,638 C563,639.104569 562.104569,640 561,640 L561,640 Z M554,618 L548,618 L548,620 L554,620 L554,618 L554,618 Z M561,631 L556,631 C556,632.104569 555.104569,633 554,633 L548,633 C546.895431,633 546,632.104569 546,631 L541,631 L541,629 L546,629 C546,627.895431 546.895431,627 548,627 L554,627 C555.104569,627 556,627.895431 556,629 L561,629 L561,622 L541,622 L541,638 L561,638 L561,631 L561,631 Z M554,630 C554,629.447715 553.552285,629 553,629 L549,629 C548.447715,629 548,629.447715 548,630 C548,630.552285 548.447715,631 549,631 L553,631 C553.552285,631 554,630.552285 554,630 L554,630 Z"
         id="case"
         fill="#22C199" />
      <g
         id="RU"
         transform="translate(120.000000, 110.000000)">
        <mask
           id="mask-9"
           fill="white">
          <use
             xlink:href="#path-8"
             id="use535" />
        </mask>
        <g
           id="Mask">
          <use
             fill="#F5F5F5"
             fill-rule="evenodd"
             xlink:href="#path-8"
             id="use538" />
          <rect
             stroke="#F5F5F5"
             stroke-width="0.5"
             x="0.25"
             y="0.25"
             width="13.5"
             height="9.5"
             rx="1"
             id="rect540" />
        </g>
        <rect
           id="Rectangle-2"
           fill="#0C47B7"
           mask="url(#mask-9)"
           x="0"
           y="3.33333333"
           width="14"
           height="3.33333333" />
        <rect
           id="rect544"
           fill="#E53B35"
           mask="url(#mask-9)"
           x="0"
           y="6.66666667"
           width="14"
           height="3.33333333" />
      </g>
      <g
         id="UA"
         transform="translate(164.000000, 110.000000)">
        <mask
           id="mask-12"
           fill="white">
          <use
             xlink:href="#path-11"
             id="use547" />
        </mask>
        <use
           id="use550"
           fill="#FFFFFF"
           xlink:href="#path-11" />
        <rect
           id="rect552"
           fill="#156DD1"
           mask="url(#mask-12)"
           x="0"
           y="0"
           width="14"
           height="5.33333333" />
        <rect
           id="rect554"
           fill="#FFD948"
           mask="url(#mask-12)"
           x="0"
           y="5.33333333"
           width="14"
           height="4.66666667" />
      </g>
      <g
         id="GB"
         transform="translate(208.000000, 110.000000)">
        <mask
           id="mask-14"
           fill="white">
          <use
             xlink:href="#path-13"
             id="use557" />
        </mask>
        <use
           id="use560"
           fill="#FFFFFF"
           xlink:href="#path-13" />
        <rect
           id="rect562"
           fill="#0A17A7"
           mask="url(#mask-14)"
           x="0"
           y="0"
           width="14"
           height="10" />
        <path
           d="M3.33687062,6.66666667 L6.66133815e-16,6.66666667 L6.66133815e-16,3.33333333 L3.33687062,3.33333333 L-1.38682514,0.147160315 L-0.641234599,-0.958223115 L5.33333333,3.07167384 L5.33333333,-0.666666667 L8.66666667,-0.666666667 L8.66666667,3.07167384 L14.6412346,-0.958223115 L15.3868251,0.147160315 L10.6631294,3.33333333 L14,3.33333333 L14,6.66666667 L10.6631294,6.66666667 L15.3868251,9.85283969 L14.6412346,10.9582231 L8.66666667,6.92832616 L8.66666667,10.6666667 L5.33333333,10.6666667 L5.33333333,6.92832616 L-0.641234599,10.9582231 L-1.38682514,9.85283969 L3.33687062,6.66666667 Z"
           id="path564"
           fill="#FFFFFF"
           mask="url(#mask-14)" />
        <path
           d="M9.33398437,3.16609701 L15.6666667,-1"
           id="Line"
           stroke="#DB1F35"
           stroke-width="0.666666667"
           stroke-linecap="round"
           mask="url(#mask-14)" />
        <path
           d="M10.0063883,10.6751709 L15.6833089,6.84875488"
           id="Line-Copy-2"
           stroke="#DB1F35"
           stroke-width="0.666666667"
           stroke-linecap="round"
           mask="url(#mask-14)"
           transform="translate(12.844849, 8.761963) scale(1, -1) translate(-12.844849, -8.761963) " />
        <path
           d="M4.00276693,3.15523275 L-1.91874186,-0.835489909"
           id="Line-Copy"
           stroke="#DB1F35"
           stroke-width="0.666666667"
           stroke-linecap="round"
           mask="url(#mask-14)" />
        <path
           d="M4.64501953,11.1552327 L-1.91874186,6.80244954"
           id="Line-Copy-3"
           stroke="#DB1F35"
           stroke-width="0.666666667"
           stroke-linecap="round"
           mask="url(#mask-14)"
           transform="translate(1.363139, 8.978841) scale(1, -1) translate(-1.363139, -8.978841) " />
        <polygon
           id="Rectangle-2-Copy-3"
           fill="#E6273E"
           mask="url(#mask-14)"
           points="0 6 6 6 6 10 8 10 8 6 14 6 14 4 8 4 8 0 6 0 6 4 0 4" />
      </g>
      <g
         id="KZ"
         transform="translate(252.000000, 110.000000)">
        <mask
           id="mask-16"
           fill="white">
          <use
             xlink:href="#path-15"
             id="use572" />
        </mask>
        <use
           id="use575"
           fill="#FFFFFF"
           xlink:href="#path-15" />
        <rect
           id="rect577"
           fill="#30C6E0"
           mask="url(#mask-16)"
           x="0"
           y="0"
           width="14"
           height="10" />
        <circle
           id="Oval-9"
           fill="#FFCD4B"
           mask="url(#mask-16)"
           cx="7"
           cy="5"
           r="2" />
        <path
           d="M7,7.35680651 L6.18408991,8.57473568 L5.97741998,7.12340929 L4.71387073,7.86671544 L5.15737447,6.46944482 L3.69644748,6.59090704 L4.70228355,5.52443879 L3.33333333,5 L4.70228355,4.47556121 L3.69644748,3.40909296 L5.15737447,3.53055518 L4.71387073,2.13328456 L5.97741998,2.87659071 L6.18408991,1.42526432 L7,2.64319349 L7.81591009,1.42526432 L8.02258002,2.87659071 L9.28612927,2.13328456 L8.84262553,3.53055518 L10.3035525,3.40909296 L9.29771645,4.47556121 L10.6666667,5 L9.29771645,5.52443879 L10.3035525,6.59090704 L8.84262553,6.46944482 L9.28612927,7.86671544 L8.02258002,7.12340929 L7.81591009,8.57473568 L7,7.35680651 Z M7,7.33333333 C8.28866442,7.33333333 9.33333333,6.28866442 9.33333333,5 C9.33333333,3.71133558 8.28866442,2.66666667 7,2.66666667 C5.71133558,2.66666667 4.66666667,3.71133558 4.66666667,5 C4.66666667,6.28866442 5.71133558,7.33333333 7,7.33333333 Z"
           id="Star-28"
           fill="#FFCD4B"
           mask="url(#mask-16)" />
        <path
           d="M0.666666667,1 C0.666666667,0.815905083 0.821289063,0.666666667 1,0.666666667 C1.18409492,0.666666667 1.33333333,0.821289062 1.33333333,1 C1.33333333,1.18409492 1.17871094,1.33333333 1,1.33333333 C0.815905083,1.33333333 0.666666667,1.17871094 0.666666667,1 Z M0.666666667,2.33333333 C0.666666667,2.14923842 0.821289063,2 1,2 C1.18409492,2 1.33333333,2.1546224 1.33333333,2.33333333 C1.33333333,2.51742825 1.17871094,2.66666667 1,2.66666667 C0.815905083,2.66666667 0.666666667,2.51204427 0.666666667,2.33333333 Z M0.666666667,3.66666667 C0.666666667,3.48257175 0.821289063,3.33333333 1,3.33333333 C1.18409492,3.33333333 1.33333333,3.48795573 1.33333333,3.66666667 C1.33333333,3.85076158 1.17871094,4 1,4 C0.815905083,4 0.666666667,3.8453776 0.666666667,3.66666667 Z M0.666666667,5 C0.666666667,4.81590508 0.821289063,4.66666667 1,4.66666667 C1.18409492,4.66666667 1.33333333,4.82128906 1.33333333,5 C1.33333333,5.18409492 1.17871094,5.33333333 1,5.33333333 C0.815905083,5.33333333 0.666666667,5.17871094 0.666666667,5 Z M0.666666667,6.33333333 C0.666666667,6.14923842 0.821289063,6 1,6 C1.18409492,6 1.33333333,6.1546224 1.33333333,6.33333333 C1.33333333,6.51742825 1.17871094,6.66666667 1,6.66666667 C0.815905083,6.66666667 0.666666667,6.51204427 0.666666667,6.33333333 Z M0.666666667,7.66666667 C0.666666667,7.48257175 0.821289063,7.33333333 1,7.33333333 C1.18409492,7.33333333 1.33333333,7.48795573 1.33333333,7.66666667 C1.33333333,7.85076158 1.17871094,8 1,8 C0.815905083,8 0.666666667,7.8453776 0.666666667,7.66666667 Z M0.666666667,9 C0.666666667,8.81590508 0.821289063,8.66666667 1,8.66666667 C1.18409492,8.66666667 1.33333333,8.82128906 1.33333333,9 C1.33333333,9.18409492 1.17871094,9.33333333 1,9.33333333 C0.815905083,9.33333333 0.666666667,9.17871094 0.666666667,9 Z M1.33333333,8.33333333 C1.33333333,8.14923842 1.48795573,8 1.66666667,8 C1.85076158,8 2,8.1546224 2,8.33333333 C2,8.51742825 1.8453776,8.66666667 1.66666667,8.66666667 C1.48257175,8.66666667 1.33333333,8.51204427 1.33333333,8.33333333 Z M1.33333333,7 C1.33333333,6.81590508 1.48795573,6.66666667 1.66666667,6.66666667 C1.85076158,6.66666667 2,6.82128906 2,7 C2,7.18409492 1.8453776,7.33333333 1.66666667,7.33333333 C1.48257175,7.33333333 1.33333333,7.17871094 1.33333333,7 Z M1.33333333,5.66666667 C1.33333333,5.48257175 1.48795573,5.33333333 1.66666667,5.33333333 C1.85076158,5.33333333 2,5.48795573 2,5.66666667 C2,5.85076158 1.8453776,6 1.66666667,6 C1.48257175,6 1.33333333,5.8453776 1.33333333,5.66666667 Z M1.33333333,4.33333333 C1.33333333,4.14923842 1.48795573,4 1.66666667,4 C1.85076158,4 2,4.1546224 2,4.33333333 C2,4.51742825 1.8453776,4.66666667 1.66666667,4.66666667 C1.48257175,4.66666667 1.33333333,4.51204427 1.33333333,4.33333333 Z M1.33333333,3 C1.33333333,2.81590508 1.48795573,2.66666667 1.66666667,2.66666667 C1.85076158,2.66666667 2,2.82128906 2,3 C2,3.18409492 1.8453776,3.33333333 1.66666667,3.33333333 C1.48257175,3.33333333 1.33333333,3.17871094 1.33333333,3 Z M1.33333333,1.66666667 C1.33333333,1.48257175 1.48795573,1.33333333 1.66666667,1.33333333 C1.85076158,1.33333333 2,1.48795573 2,1.66666667 C2,1.85076158 1.8453776,2 1.66666667,2 C1.48257175,2 1.33333333,1.8453776 1.33333333,1.66666667 Z"
           id="Rectangle-294"
           fill="#FFCD4B"
           mask="url(#mask-16)" />
      </g>
    </g>
  </g>
</svg>
