<?xml version="1.0" encoding="UTF-8"?>
<svg width="465px" height="465px" viewBox="0 0 465 465" version="1.1" xmlns="http://www.w3.org/2000/svg" xmlns:xlink="http://www.w3.org/1999/xlink">
    <defs>
        <linearGradient x1="25.9342784%" y1="30.9012277%" x2="137.051846%" y2="239.090402%" id="linearGradient-1">
            <stop stop-color="#5153A8" offset="0%"></stop>
            <stop stop-color="#272A57" offset="100%"></stop>
        </linearGradient>
        <path d="M20,9.99973242 C20,15.5225838 15.5228513,19.9995986 10,19.9995986 C4.47701488,19.9995986 0,15.5225838 0,9.99973242 C0,4.47701488 4.47701488,0 10,0 C15.5228513,0 20,4.47701488 20,9.99973242" id="path-2"></path>
    </defs>
    <g id="Page-1" stroke="none" stroke-width="1" fill="none" fill-rule="evenodd">
        <g id="Artboard">
            <path d="M37.512,42.288 C41.808,42.288 44.424,40.248 44.424,36.72 C44.424,30.768 35.52,32.064 35.52,30.552 C35.52,30.144 35.784,29.832 36.744,29.832 C38.256,29.832 40.056,30.36 41.448,31.416 L44.04,27.984 C42.216,26.496 39.864,25.752 37.248,25.752 C32.856,25.752 30.6,28.344 30.6,31.056 C30.6,37.368 39.528,35.808 39.528,37.344 C39.528,37.968 38.664,38.208 37.752,38.208 C35.592,38.208 33.792,37.296 32.592,36.144 L30.072,39.744 C31.776,41.28 34.104,42.288 37.512,42.288 Z M53.496,42.288 C52.296,42.288 51.192,41.88 50.232,40.776 L50.232,46.416 L45.912,46.416 L45.912,30.408 L50.232,30.408 L50.232,31.632 C51.168,30.528 52.296,30.12 53.496,30.12 C56.376,30.12 58.584,32.232 58.584,36.192 C58.584,40.176 56.376,42.288 53.496,42.288 Z M52.008,38.472 C53.16,38.472 54.168,37.656 54.168,36.192 C54.168,34.752 53.16,33.936 52.008,33.936 C51.456,33.936 50.64,34.224 50.232,34.728 L50.232,37.68 C50.616,38.16 51.456,38.472 52.008,38.472 Z M72.336,42 L72.336,30.408 L68.016,30.408 L68.016,37.56 C67.656,37.968 67.152,38.472 66.192,38.472 C65.136,38.472 64.512,38.016 64.512,36.84 L64.512,30.408 L60.192,30.408 L60.192,38.688 C60.192,40.68 61.344,42.288 64.032,42.288 C66.072,42.288 67.344,41.448 68.016,40.704 L68.016,42 L72.336,42 Z M79.608,42.288 C81.072,42.288 82.08,41.928 82.536,41.52 L81.768,38.256 C81.672,38.352 81.288,38.472 80.904,38.472 C80.328,38.472 79.944,37.992 79.944,37.392 L79.944,34.152 L82.296,34.152 L82.296,30.408 L79.944,30.408 L79.944,27.24 L75.624,27.24 L75.624,30.408 L73.704,30.408 L73.704,34.152 L75.624,34.152 L75.624,38.64 C75.624,41.064 77.04,42.288 79.608,42.288 Z M96.072,42 L96.072,33.768 C96.072,31.752 94.896,30.12 92.208,30.12 C90.168,30.12 88.896,30.96 88.224,31.728 L88.224,30.408 L83.904,30.408 L83.904,42 L88.224,42 L88.224,34.848 C88.584,34.44 89.088,33.936 90.072,33.936 C91.104,33.936 91.752,34.392 91.752,35.592 L91.752,42 L96.072,42 Z M100.632,29.568 C101.976,29.568 103.056,28.488 103.056,27.144 C103.056,25.8 101.976,24.72 100.632,24.72 C99.288,24.72 98.208,25.8 98.208,27.144 C98.208,28.488 99.288,29.568 100.632,29.568 Z M102.792,42 L102.792,30.408 L98.472,30.408 L98.472,42 L102.792,42 Z M117.648,42 L113.4,35.688 L117.384,30.408 L112.176,30.408 L109.512,34.536 L109.512,25.992 L105.192,25.992 L105.192,42 L109.512,42 L109.512,39.384 L110.352,38.256 L112.344,42 L117.648,42 Z" id="Sputnik" fill="url(#linearGradient-1)"></path>
            <g id="Group" transform="translate(30.000000, 75.000000)">
                <mask id="mask-3" fill="white">
                    <use xlink:href="#path-2"></use>
                </mask>
                <use id="Fill-678" fill="#F3F6FD" xlink:href="#path-2"></use>
                <path d="M2.23969022,19.9942872 C2.66718207,20.471843 3.13075229,20.9073343 3.62303795,21.301256 C6.55142339,20.6899186 11.0400142,20.2501383 16.214683,21.4475745 C17.0103215,20.8382166 17.7292382,20.1138823 18.3561183,19.2976661 C11.6836817,17.7906022 5.43049057,19.0728272 2.23969022,19.9942872" id="Fill-679" fill="#6A7AB5" mask="url(#mask-3)"></path>
                <path d="M17.3269276,2.21684893 C12.7451221,3.11208048 6.32361426,2.01972313 3.52363836,1.44797583 C2.83402612,2.01131023 2.20582073,2.66223776 1.65065564,3.3860771 C5.82396568,5.43486573 13.3706768,8.59514695 20.7844133,8.93908611 C20.3024358,6.28968238 19.0604564,3.95106108 17.3269276,2.21684893" id="Fill-680" fill="#6A7AB5" mask="url(#mask-3)"></path>
                <path d="M-0.944336232,10.0258349 C-0.981003635,10.4349328 -1,10.8496392 -1,11.2691295 C-1,11.7105594 -0.978352979,12.1465455 -0.93800411,12.5759334 C5.68009398,12.4499048 11.291532,15.4298861 -0.184187099,15.9282267 C0.0713066527,16.6291367 0.383347725,17.297055 0.744425926,17.9263729 L20.3290896,15.5545949 C20.7137292,14.3927899 20.9462506,13.1490003 21,11.852424 C15.1765096,12.6956935 5.19870546,11.1689995 -0.944336232,10.0258349" id="Fill-681" fill="#6A7AB5" mask="url(#mask-3)"></path>
            </g>
        </g>
    </g>
</svg>